<?xml version="1.0" encoding="UTF-8"?>
<svg width="536px" height="40px" viewBox="0 0 536 40" version="1.1" xmlns="http://www.w3.org/2000/svg" xmlns:xlink="http://www.w3.org/1999/xlink">
    <title>IGP_CASAMUCHA_HORIZONTAL_HARD_GRAY</title>
    <g id="IGP_CASAMUCHA_HORIZONTAL_HARD_GRAY" stroke="none" stroke-width="1" fill="none" fill-rule="evenodd">
        <path d="M15.2023356,0.00298789225 C19.8268921,0.00298789225 23.5041365,2.18333435 26.3414847,5.50261101 L26.3414847,11.9216901 C23.1880959,9.79458241 19.7637379,8.42341149 15.7467027,8.42341149 C8.36495505,8.42341149 3.99490433,12.6811579 3.99490433,19.9194627 C3.99490433,27.2645167 8.47776886,31.5787615 16.0505982,31.5787615 C19.780741,31.5787615 23.529776,30.4018036 26.9201278,28.563435 L26.9201278,34.9618704 C23.6679594,38.3259655 19.9038106,39.9994567 15.3132601,39.9994567 C6.10301118,39.9994567 0,32.7092713 0,20.4540238 C0,7.80681918 6.47195012,0.00298789225 15.2023356,0.00298789225" id="Fill-1" fill="#44240A"></path>
        <path d="M76.5495675,24.0568786 L72.9236021,12.9060647 C72.525785,11.6845601 71.5134295,11.158691 69.5842594,11.158691 C67.7114962,11.158691 66.7215415,11.6845601 66.3237244,12.9060647 L62.6839946,24.0568786 L76.5495675,24.0568786 Z M79.0606194,31.7694434 L60.1624171,31.7694434 L57.6529845,39.4703282 L53.2570244,39.4703282 L65.941291,0.796680723 L73.4372019,0.796680723 L86.1230877,39.4703282 L81.5668133,39.4703282 L79.0606194,31.7694434 L79.0606194,31.7694434 Z" id="Fill-2" fill="#44240A"></path>
        <path d="M112.933101,34.8404533 L112.933101,28.3526528 C116.028193,30.2942395 120.244947,31.6051093 125.030088,31.6051093 C130.965767,31.6051093 134.588224,30.0571095 134.588224,27.3560549 C134.588224,24.7033498 131.291794,23.103741 125.277576,21.6244627 C117.262398,19.682876 112.668339,17.641874 112.668339,10.980504 C112.668339,4.26942639 117.798399,0 124.558861,0 C129.374499,0 133.66979,1.89160742 136.708476,4.43457535 L136.708476,10.6833445 C133.490584,9.25893482 129.096243,8.41553432 124.857628,8.41553432 C119.783976,8.41553432 116.722889,9.64899057 116.722889,11.9480378 C116.722889,14.3978379 120.079235,15.9338861 126.713119,17.5628306 C133.545101,19.2928202 138.735076,21.4886494 138.735076,28.3732964 C138.735076,35.2853777 133.400171,40 125.589838,40 C120.746671,40 116.040069,38.1184428 112.933101,34.8404533" id="Fill-3" fill="#44240A"></path>
        <path d="M188.042808,24.0568786 L184.416572,12.9060647 C184.019025,11.6845601 183.008289,11.158691 181.079119,11.158691 C179.204736,11.158691 178.214512,11.6845601 177.816965,12.9060647 L174.177235,24.0568786 L188.042808,24.0568786 Z M190.555749,31.7694434 L171.657546,31.7694434 L169.146225,39.4703282 L164.752154,39.4703282 L177.434531,0.796680723 L184.932331,0.796680723 L197.617947,39.4703282 L193.061673,39.4703282 L190.555749,31.7694434 L190.555749,31.7694434 Z" id="Fill-4" fill="#44240A"></path>
        <path d="M262.909614,0.796409097 L272.05347,0.796409097 L280.587376,27.7059099 C280.84647,28.5254073 281.561677,28.8999803 282.584558,28.8999803 C283.472495,28.8999803 284.29026,28.5547429 284.56015,27.7059099 L293.142636,0.796409097 L302.259503,0.796409097 L302.259503,39.4700566 L297.790133,39.4700566 L297.790133,11.0109262 L296.084431,11.0109262 C295.002174,11.0109262 294.241086,11.4781239 293.952304,12.4266439 L285.796244,39.0990147 L279.40526,39.0990147 L271.197921,12.4266439 C270.90644,11.4781239 270.091374,11.0109262 269.038805,11.0109262 L267.384382,11.0109262 L267.384382,39.4700566 L262.909614,39.4700566 L262.909614,0.796409097" id="Fill-5" fill="#44240A"></path>
        <path d="M333.642253,0.796409097 L338.000969,0.796409097 L338.000969,24.2111625 C338.000969,28.7883418 341.471748,31.4926559 347.35264,31.4926559 C353.236231,31.4926559 356.709709,28.7883418 356.709709,24.2111625 L356.709709,0.796409097 L361.068424,0.796409097 L361.068424,24.2111625 C361.068424,34.1317796 355.975609,39.9991851 347.358038,39.9991851 C338.732369,39.9991851 333.642253,34.1317796 333.642253,24.2111625 L333.642253,0.796409097" id="Fill-6" fill="#44240A"></path>
        <path d="M405.465246,0.00298789225 C410.088453,0.00298789225 413.767047,2.18333435 416.603586,5.50261101 L416.603586,11.9216901 C413.453975,9.79458241 410.02368,8.42341149 406.007724,8.42341149 C398.626246,8.42341149 394.256735,12.6811579 394.256735,19.9194627 C394.256735,27.2645167 398.7396,31.5787615 406.312699,31.5787615 C410.042572,31.5787615 413.791337,30.4018036 417.181149,28.563435 L417.181149,34.9618704 C413.934379,38.3259655 410.166721,39.9994567 405.575901,39.9994567 C396.364572,39.9994567 390.262371,32.7092713 390.262371,20.4540238 C390.262371,7.80681918 396.734321,0.00298789225 405.465246,0.00298789225" id="Fill-7" fill="#44240A"></path>
        <polyline id="Fill-8" fill="#44240A" points="474.449001 0.796409097 474.449001 39.4700566 469.976933 39.4700566 469.976933 23.2851875 451.508394 23.2851875 451.508394 39.4700566 447.033626 39.4700566 447.033626 0.796409097 451.508394 0.796409097 451.508394 15.3422834 469.976933 15.3422834 469.976933 0.796409097 474.449001 0.796409097"></polyline>
        <path d="M526.42702,24.0568786 L522.799705,12.9060647 C522.400268,11.6845601 521.390882,11.158691 519.461172,11.158691 C517.588139,11.158691 516.597644,11.6845601 516.198208,12.9060647 L512.560097,24.0568786 L526.42702,24.0568786 Z M528.936992,31.7694434 L510.039329,31.7694434 L507.529357,39.4703282 L503.132857,39.4703282 L515.817663,0.796680723 L523.315194,0.796680723 L536,39.4703282 L531.444265,39.4703282 L528.936992,31.7694434 L528.936992,31.7694434 Z" id="Fill-9" fill="#44240A"></path>
    </g>
</svg>