<svg alt="Church.Org" class="mobile-header-logo" width="72" height="72" viewBox="0 0 72 72" fill="none" xmlns="http://www.w3.org/2000/svg"><path d="M35.571 0C15.976 0 0 16 0 35.625S15.976 71.25 35.571 71.25c19.596 0 35.572-16 35.572-35.625S55.167 0 35.57 0zm0 13.625c2.372 0 4.244 3.625 4.244 6s-1.872 4-4.244 4c-2.371 0-4.243-1.625-4.243-4s1.872-6 4.243-6zm-15.975 26.25c-2.372 0-5.992-1.875-5.992-4.25s3.62-4.25 5.992-4.25c2.37 0 3.994 1.875 3.994 4.25s-1.623 4.25-3.994 4.25zM35.57 57.5c-2.371 0-4.243-3.625-4.243-6s1.872-4 4.243-4c2.372 0 4.244 1.625 4.244 4s-1.997 6-4.244 6zm0-14c-4.742 0-7.863-3-7.863-7.875s3.12-7.875 7.863-7.875 7.864 3 7.864 7.875-3.12 7.875-7.864 7.875zm15.976-3.625c-2.371 0-3.994-1.875-3.994-4.25s1.623-4.25 3.994-4.25c2.372 0 5.991 1.875 5.991 4.25s-3.62 4.25-5.99 4.25z" fill="#fff"></path></svg>