<svg alt="Church.Org" width="107" height="20" viewBox="0 0 107 20" fill="none" xmlns="http://www.w3.org/2000/svg"><path d="M0 7.765c0-.91.16-1.805.483-2.686A7.456 7.456 0 0 1 1.93 2.686a7.28 7.28 0 0 1 2.308-1.7c.91-.433 1.945-.65 3.106-.65 1.371 0 2.554.3 3.547.902 1.007.602 1.756 1.385 2.245 2.35l-2.224 1.533a3.647 3.647 0 0 0-.714-1.05 3.46 3.46 0 0 0-.902-.692 3.763 3.763 0 0 0-1.007-.357 4.397 4.397 0 0 0-1.029-.126c-.727 0-1.364.147-1.91.44-.531.295-.979.68-1.343 1.155a5.02 5.02 0 0 0-.797 1.595 5.878 5.878 0 0 0 .042 3.673c.21.601.504 1.133.881 1.595.392.461.854.832 1.385 1.112.546.28 1.14.42 1.784.42.336 0 .686-.042 1.05-.126a3.829 3.829 0 0 0 1.028-.399 3.99 3.99 0 0 0 .923-.693c.28-.293.504-.643.672-1.049l2.371 1.364a4.518 4.518 0 0 1-1.028 1.49c-.434.42-.93.777-1.49 1.07a7.411 7.411 0 0 1-1.763.672c-.63.154-1.245.231-1.847.231-1.063 0-2.035-.224-2.917-.672a7.815 7.815 0 0 1-2.287-1.741 8.61 8.61 0 0 1-1.49-2.456A7.881 7.881 0 0 1 0 7.765zM25.003 15.32h-2.812V9.15c0-.867-.16-1.504-.482-1.91-.322-.42-.777-.63-1.365-.63-.251 0-.517.057-.797.169-.28.112-.546.272-.797.482a3.734 3.734 0 0 0-.693.714 2.86 2.86 0 0 0-.462.923v6.422h-2.812V0h2.812v6.359a4.185 4.185 0 0 1 1.637-1.637c.7-.392 1.47-.588 2.309-.588.713 0 1.294.126 1.741.378.448.238.798.56 1.05.965.252.406.427.868.524 1.386.098.517.147 1.049.147 1.594v6.863zM30.573 15.53c-1.134 0-1.994-.364-2.582-1.091-.587-.728-.881-1.805-.881-3.232V4.323h2.812v6.275c0 1.693.609 2.54 1.826 2.54.546 0 1.07-.161 1.574-.483.518-.336.937-.84 1.26-1.511v-6.82h2.811v7.764c0 .294.05.504.147.63.112.126.287.196.525.21v2.392a5.866 5.866 0 0 1-1.217.126c-.504 0-.917-.112-1.239-.336a1.415 1.415 0 0 1-.545-.965L35 13.263a4.687 4.687 0 0 1-1.889 1.7c-.77.378-1.616.567-2.54.567zM46.502 6.758c-.854.014-1.616.181-2.288.503-.671.308-1.154.777-1.448 1.406v6.653h-2.812V4.323h2.582v2.35c.195-.377.426-.713.692-1.007.266-.307.553-.573.86-.797.308-.224.616-.392.924-.504.322-.126.63-.189.923-.189h.336c.084 0 .161.007.231.021v2.56zM46.59 9.822c0-.77.133-1.497.4-2.183a5.314 5.314 0 0 1 1.154-1.805 5.617 5.617 0 0 1 1.825-1.238c.714-.308 1.518-.462 2.414-.462 1.203 0 2.224.26 3.064.777.853.517 1.49 1.196 1.91 2.035l-2.75.84a2.395 2.395 0 0 0-.944-.923 2.576 2.576 0 0 0-1.301-.336c-.406 0-.784.084-1.134.252-.35.153-.657.377-.923.671a3.23 3.23 0 0 0-.609 1.028c-.14.406-.21.854-.21 1.344 0 .49.078.937.231 1.343.154.405.357.755.609 1.05.266.293.574.524.923.692.35.153.721.23 1.113.23.503 0 .965-.126 1.385-.377.434-.252.734-.56.902-.924l2.75.84c-.378.84-1 1.525-1.868 2.056-.868.532-1.91.798-3.127.798-.896 0-1.7-.154-2.414-.462a5.618 5.618 0 0 1-1.826-1.238 5.838 5.838 0 0 1-1.175-1.826 6.094 6.094 0 0 1-.398-2.182zM69.115 15.32h-2.812V9.15c0-.867-.16-1.504-.482-1.91-.322-.42-.777-.63-1.364-.63a2.15 2.15 0 0 0-.798.169c-.28.112-.546.272-.797.482a3.734 3.734 0 0 0-.693.714 2.86 2.86 0 0 0-.462.923v6.422h-2.812V0h2.812v6.359a4.185 4.185 0 0 1 1.637-1.637c.7-.392 1.47-.588 2.309-.588.713 0 1.294.126 1.742.378.447.238.797.56 1.049.965.252.406.427.868.525 1.386.098.517.147 1.049.147 1.594v6.863zM71.264 15.32v-3.022h2.309v3.022h-2.309zM80.886 15.53c-.896 0-1.7-.154-2.414-.462a5.618 5.618 0 0 1-1.825-1.238 5.721 5.721 0 0 1-1.134-1.826 5.925 5.925 0 0 1-.398-2.161c0-.77.132-1.497.398-2.183a5.48 5.48 0 0 1 1.133-1.805 5.46 5.46 0 0 1 1.826-1.259c.714-.308 1.518-.462 2.414-.462.895 0 1.693.154 2.392.462a5.236 5.236 0 0 1 1.805 1.26c.504.517.889 1.118 1.154 1.804.266.686.399 1.413.399 2.183 0 .755-.133 1.476-.399 2.161a5.721 5.721 0 0 1-1.133 1.826c-.49.518-1.091.93-1.805 1.238-.713.308-1.518.462-2.413.462zM78.01 9.843c0 .49.07.937.21 1.343.153.392.356.734.608 1.028.266.294.574.525.924.693.35.153.727.23 1.133.23s.783-.077 1.133-.23c.35-.168.65-.4.902-.693a3 3 0 0 0 .61-1.05c.153-.405.23-.853.23-1.342 0-.476-.077-.917-.23-1.323a3.001 3.001 0 0 0-.61-1.049 2.503 2.503 0 0 0-.902-.671 2.584 2.584 0 0 0-1.133-.252c-.406 0-.784.084-1.133.252-.35.167-.658.398-.924.692a3.506 3.506 0 0 0-.608 1.05 4.03 4.03 0 0 0-.21 1.322zM94.848 6.758c-.853.014-1.616.181-2.287.503-.672.308-1.155.777-1.448 1.406v6.653H88.3V4.323h2.582v2.35c.196-.377.426-.713.692-1.007a5.11 5.11 0 0 1 .86-.797c.309-.224.616-.392.924-.504.322-.126.63-.189.924-.189h.335c.084 0 .161.007.231.021v2.56zM99.931 15.383c-.741 0-1.413-.147-2.014-.44a5.056 5.056 0 0 1-1.574-1.197 5.728 5.728 0 0 1-1.008-1.784 6.365 6.365 0 0 1-.356-2.14c0-.798.126-1.54.377-2.225a5.774 5.774 0 0 1 1.05-1.805 4.787 4.787 0 0 1 1.616-1.217 4.852 4.852 0 0 1 2.077-.44c.854 0 1.602.195 2.246.587a4.774 4.774 0 0 1 1.595 1.532v-1.93h2.455v10.471c0 .812-.154 1.54-.461 2.183a4.732 4.732 0 0 1-1.281 1.637c-.531.448-1.175.79-1.93 1.028a7.936 7.936 0 0 1-2.435.357c-1.203 0-2.217-.203-3.043-.609a6.065 6.065 0 0 1-2.099-1.678l1.533-1.49c.42.517.944.923 1.573 1.217.644.293 1.323.44 2.036.44.434 0 .847-.063 1.238-.188a2.878 2.878 0 0 0 1.071-.546 2.49 2.49 0 0 0 .713-.966c.182-.391.273-.853.273-1.385V13.41a3.779 3.779 0 0 1-1.532 1.47 4.595 4.595 0 0 1-2.12.503zm.945-2.245c.308 0 .601-.05.881-.147a3.14 3.14 0 0 0 1.406-.987c.182-.224.322-.461.42-.713V8.667a3.392 3.392 0 0 0-1.196-1.553c-.532-.391-1.091-.587-1.679-.587-.434 0-.826.098-1.175.294-.35.181-.65.433-.903.755a3.446 3.446 0 0 0-.587 1.07 4.221 4.221 0 0 0-.19 1.26 3.412 3.412 0 0 0 .861 2.287c.28.294.602.525.966.693.363.168.762.252 1.196.252z" fill="#fff"></path></svg>