<svg xmlns="http://www.w3.org/2000/svg" viewBox="0 0 732.47 339.55"><defs><style>.cls-1{fill:#f3e001;}</style></defs><g id="Layer_2" data-name="Layer 2"><g id="a"><path d="M732.47,81.56q0-.57-7.18-1.62-3.75-3.47-5.62-3.46-1.56,0-3.12-26.32V47.39A73.52,73.52,0,0,1,715,39.77v-.23q2.81-5,2.81-5.77a5.54,5.54,0,0,0-1.25-1.85c-3.33-2.38-5-3.85-5-4.39v-.46a1.83,1.83,0,0,1,.31-1.15q4.07-3.87,4.06-5.08c-.89-6.16-2.13-9.23-3.75-9.23h-1.25q-5.77,2.09-6.87,2.08h-.94q-2.19,0-5.62-3.69c-3.33.27-5,.58-5,.92q-3,0-6.56,6.93-5.62,7.84-5.62,8.54l1.25,3.93v.92a11.9,11.9,0,0,1-1.25,3.23q0,3.63-8.74,22.62-1,6.4-3.43,9.69Q662.83,83.17,661,87.09q-1,5.53-2.5,6.23c-2.77,1-6.33,2.43-10.63,4.33Q646.15,95,644.1,92.1q-4.85-12.64-5-17.08,0-2.65,14.36-6.93A37.88,37.88,0,0,0,672.2,53.55q3.43-4.44,5-18,0-3.28-5.31-9.69a15.05,15.05,0,0,0-7.81-3.69l-5.62-2.08-2.19.23q-8.35-1.38-9.37-1.38a39.64,39.64,0,0,0-4.06.69q-12.33,2.78-15.93,2.77-9.06,3-11.24,3-8.67,2.54-10,2.54-6.87,1.68-6.87,3.46l-.65.2a36.67,36.67,0,0,0-4-5.74,15.05,15.05,0,0,0-7.81-3.69l-5.62-2.08-2.19.23q-8.36-1.38-9.37-1.38a39.64,39.64,0,0,0-4.06.69q-12.33,2.78-15.93,2.77-9.06,3-11.24,3-8.67,2.54-10,2.54Q521,29.62,521,31.4a66.45,66.45,0,0,0-10.3,3.92q-12.57,2.43-15.61,4.62l.31.46q1.88,0,14.05-1.85h.31v.23l-.31.46q-6.87,1.84-7.81,2.77c-4.37,2-7,3.35-7.81,4.15-1.72,0-4.55.75-8.43,2.2v-1a73.52,73.52,0,0,1-1.56-7.62v-.23q2.81-5,2.81-5.77a5.54,5.54,0,0,0-1.25-1.85c-3.33-2.38-5-3.85-5-4.39v-.46a1.83,1.83,0,0,1,.31-1.15q4.06-3.87,4.06-5.08c-.89-6.16-2.13-9.23-3.75-9.23h-1.25q-5.78,2.09-6.87,2.08H472q-2.19,0-5.62-3.69c-3.33.27-5,.58-5,.92q-3,0-6.56,6.93-5.62,7.84-5.62,8.54l1.25,3.93v.92a11.9,11.9,0,0,1-1.25,3.23q0,3.63-8.74,22.62-1,6.41-3.43,9.69-1.74,5.35-3.1,9.37-1.46-5.89-8.69-8.39L414,63.81V60.58a1.44,1.44,0,0,1,.31-.92q9.21-5.94,10.3-8.08Q429,39.12,429,36.11v-.92q0-7.15-12.49-12.93,0-1.68-17.8-4.16l-7.45-.69c-.15-.48-1.28-.83-3.4-1l-3.35.42-.78-.07h-5q-9.68,1.08-19.9,1.75c.41-.34.62-.58.62-.72v-.23h-.31c-1.87,0-5,.77-9.37,2.31a19.81,19.81,0,0,0-10.3,3.23q-5.55,1.74-9.88,3.13a56.73,56.73,0,0,1-10.18,1.37v.23l.31.46c.58,0,2-.08,4.28-.24-2.54.84-4.59,1.55-6.14,2.11-.66-.4-1.35-.81-2.12-1.23q-21.54-5.31-29.66-5.31h-3.75a83.8,83.8,0,0,0-10,.92q-2.73,0-6.87-.23-12.26,2.54-16.24,2.54-35.91,2.37-35.91,3.93c.31.46.62.69.94.69H223v.46c-.63,0-.94.08-.94.23q-26.23.75-26.23,1.38c-2.5,0-4.68.14-6.56.26V34l-.54.08a2.18,2.18,0,0,0,0-.25l.55,0v-.26h-.56c0-.49,0-1-.06-1.56q0-1.91,2.19-4.16a5.29,5.29,0,0,0-.94-2.77q-5.31-1.79-5.31-6.69l.31-.46q-.78-3.69-2.81-3.69l-4.68,1.15h-.62c-1.72-.5-2.65-2.81-2.81-6.93Q174,7,169,7c-3.33,0-6.35,3.77-9.37,11.31q-3.83,12.29-5.93,16.16c-1,2.46-1.89,4.79-2.74,7-1.29.33-1.94.59-1.94.79s.47.51,1.39.68a177.35,177.35,0,0,0-6.7,20.39q-5.31,8.77-5.31,10.85V77q0,1.91-5,9.23a56.06,56.06,0,0,1-3.43,9.46q-9.66,3.42-15.26,5.74c.42-1.54.9-3.21,1.44-5q6.56-15.81,6.56-19.39a6.07,6.07,0,0,0,1.87-4.39l6.25-13.85-.62-4.39q0-1.72,4.37-6.69,0-6.87,13.43-20.55V26.4h-.31l-.62.23q-2.73,3.93-4.68,3.93c-1.72,1.69-2.86,2.54-3.43,2.54l-.63-.23a14.22,14.22,0,0,1,3.12-4.16A17.3,17.3,0,0,1,148,20.86a12.45,12.45,0,0,1,2.81-5.54q-1.17,0-8.43,4.62h-.31v-.69q0-2.31,5.62-8.31.78-3.69,1.56-4.62V6.09h-.31q-1.56.75-6.56,6.69Q129.72,23,126.43,28h-.62a8.14,8.14,0,0,1,.94-3q3.75-5.88,3.75-7.16c3.12-3.88,4.68-6,4.68-6.46v-.46h-.63c-1.87.92-4.06,3.16-6.56,6.69q-8.74,6.93-8.74,10.39a49.37,49.37,0,0,0-7.18,9q-5.77,2.84-8.43,10.39-7.8,7.27-7.81,8.54a28.87,28.87,0,0,0,.62,3.92,4.42,4.42,0,0,1-1.87,3.23,60.66,60.66,0,0,0-7.81,7.39,11.58,11.58,0,0,1-6.25,6.23q-2.19,0-2.19-1.38c-1-3.12-2.39-5-4.06-5.54a9.48,9.48,0,0,1,.94-4.62c-.21-4-.31-7.16-.31-9.46V47.63a54.85,54.85,0,0,0-.62-6.69q0-1.84,4.06-7.85A10.87,10.87,0,0,0,77.72,31q-3.12-3.75-3.12-4.16v-.46a23.82,23.82,0,0,1,1.87-4.85c-1.35-3.23-2.92-4.85-4.68-4.85a7.51,7.51,0,0,0-4.37,1.85q-5,6.29-6.56,6.46-6.16,0-8.43,3.92a29.64,29.64,0,0,1-4.68,10.85,13.37,13.37,0,0,1-4.37,9.93q-2.12,7.21-10.62,24.93c.42,0,.62,1.15.62,3.46v.69q-5.31,7.84-5.31,9.46-6.24,11.49-6.25,12A209.46,209.46,0,0,0,11.2,123.09v.46l.62.69q1.17,0,5-6.92h.94q-3.12,7-6.25,16.39Q10.19,141.9,9,144.1c0,.31.21.46.63.46h.62a94.1,94.1,0,0,0,5.31-9.93h.94c0,1.35-.83,3.65-2.5,6.92q-.47,7.39-1.25,7.39a54.1,54.1,0,0,0-2.5,12.24v.23c0,.31.21.46.62.46.57,0,1.2-1.69,1.87-5.08q5.94-13.44,7.18-14.31h.31v.23c0,1.92-.83,4.85-2.5,8.77q0,.41-3.12,14.08v10.16c0,.31.21.46.63.46s1-1.54,1.56-4.62a133.21,133.21,0,0,1,9.68-22.85,68.69,68.69,0,0,1,3.75-12.46L33.05,127q5.07-11.53,6.25-12.93h.31q-.31,4.62-.31,6.93v.23h.31a7.14,7.14,0,0,0,2.81-2.77,96.45,96.45,0,0,1,8.12-16.62Q53.83,90,59,85.47h.62l.63.23q0,11.25,4.37,14.54h2.5l1.56.23a10.05,10.05,0,0,0,7.18,3q2,0,5.62-2.77c2.13-4.42,4.84-7.43,8.12-9q5.55-7.4,8.74-7.39h.94v1.38q-3.44,7.91-3.43,9.23-6.24,11.72-6.25,12.93c-2,2.77-3.63,5.15-4.87,7.17l-.36.21v.38c-1.56,2.62-2.43,4.58-2.58,5.85l.31.92h.31c1.46-1.08,2.19-2,2.19-2.77h.94v.23c0,.73-.73,1.88-2.19,3.46q-3.12,8.94-5.93,12.93a56,56,0,0,0-5.31,15.46l-2.81,10.39.31.92h.62q2.19-1.22,2.19-2.31.54-6.93,6.87-14.31c.94-3.12,2.08-5.19,3.44-6.23H83q0,7.74-7.81,20.78,0,4.15-3.44,14.54a38.18,38.18,0,0,1,.31,3.93,33.88,33.88,0,0,0-.94,4.39v.46c0,1.15.31,1.77.94,1.85h.31q2.1-9.34,4.06-10.62,2.58-8,5.62-11.31l1.87-8.08q5-12.69,6.25-12.7h.31c0,4.36-1.67,10.5-5,18.47l-1.25,7.62.31.92h.94q0-.87,3.75-9,5.39-7.85,10.3-27.93,4.36-9.28,4.37-10.16h.62v.92q0,.75-3.12,13.16c.21,0,.42.38.62,1.15.83.69,1.25,1.15,1.25,1.38h.31l2.19-2.54-.62-.69q0-2.59,4.06-12,1.25-4,2.5-9.58a57.47,57.47,0,0,1,9.76-1.73h.31v.23A132.14,132.14,0,0,0,116.48,130l.31,1.15h.31q.86,0,3.44-3.92h.31v1.38q-2.19,5.49-5.62,17.54l.63,1.62h.94a64.34,64.34,0,0,1,5-9.23h.94q-6.24,22.22-6.87,25.85l.62,1.38c.36,0,1.09-.69,2.19-2.08q3.43-8.53,8.12-18,6.24-16.44,8.74-21.7h.94Q133,135.77,133,137.61a11,11,0,0,1,.31,1.38h.94c.42-.92.83-1.38,1.25-1.38a88.87,88.87,0,0,1,5.31-12.7q6.79-19.15,9.37-19.16a96.62,96.62,0,0,0,12.18-3.46h1.87l.62.23a15.28,15.28,0,0,1-.31,3,9.93,9.93,0,0,1,.62,2.08q0,2.59-.31,7.85c0,.77.1,1.15.31,1.15q1.56,25,2.19,25.85H168a11.85,11.85,0,0,0,.94-3.69v-4.39a14,14,0,0,1,.62-4.39,9.19,9.19,0,0,1-.31-2.31,6.88,6.88,0,0,1,.62-2.08h.62a17.26,17.26,0,0,1,.94,4.62,32.64,32.64,0,0,1-.94,4.85c0,1.38.52,6.39,1.56,15,0,.31.21.47.62.47H173c1,0,1.66-1.15,1.87-3.47V142.9a8.06,8.06,0,0,1,.62-2.77h.62q1.25,3.69,1.25,16.39v1.38A9.58,9.58,0,0,1,177,160q1.25,13.4,3.75,17.55h.63c.47,0,.78-.7.94-2.09a41.53,41.53,0,0,1-1.25-5.3,15.19,15.19,0,0,0,.94-3v-12a12.54,12.54,0,0,1,.62-4.86h-.31a38.49,38.49,0,0,1,.62-6.46,11.33,11.33,0,0,1-.31-3v-.23H183l.62.23Q185.48,157,187.66,157H188c.47,0,.78-.62.94-1.85q-.94-8.43-.94-9.69v-1.15q0-1.5.62-9.23l.31-1.16a31.47,31.47,0,0,0-.94-4.62c0-.23.1-1.15.31-2.77A59.26,59.26,0,0,1,187,115.66c0-.15.21-1.08.62-2.77h.62c0,1.08.83,2.17,2.5,3.23h.62V114.5a17.3,17.3,0,0,0-1.25-5.31l.31-2.08c0-.42-.1-2-.31-4.62.52-6.43,1.14-10.19,1.87-11.31q3.19-.87,5.78-1.68l.15.24V90a42.54,42.54,0,0,1-2.19,13.16q-3.75,24.47-3.75,27c0,.3.21.46.62.46h.31l.62-.23a17,17,0,0,1,1.87-8.31,8.68,8.68,0,0,0,1.56-2.77h.63q-2.5,9.46-2.5,12.23l-.31.46c.21,0,.31.08.31.23v3.93a17.52,17.52,0,0,1-.94,5.31c.89,3.23,1.82,4.85,2.81,4.85h.63q2.51-3.35,7.81-21.47h.94v6.69l.63.69q2,0,2.81-6.93,4.07-6.87,4.06-11.31Q217.6,103.23,217.6,98,221,94.11,221,92.73V89q0-3.53,12.18-9h3.12q5.24,5.77,5.62,5.77,7.72,5.14,10.93,11.54,7.19,5.84,10.3,11.77,13.11,13.39,13.12,15.23a81.17,81.17,0,0,0,7.59,8.2c-3.33,1-8,2.68-14.15,5.13a2.43,2.43,0,0,0,2.5,2.08c2.22,0,7.94-.76,17.12-2.29,1.63,1.49,3,2.28,4.12,2.35h.31v-.92c-.67-.66-1.26-1.28-1.82-1.86l.26,0h.63a7.37,7.37,0,0,1,2.81.92h0q4.24,4.38,11.22,10.67c-.08.8-.18,1.7-.3,2.72q.7,4.62,2.19,4.62h.31l1.25-.69a27.81,27.81,0,0,0,1.21-2.51c2.25,2,4.64,4.05,7.23,6.26h.62v-.23q-1.94-1.8-7.07-7.93.56-1.4,1.2-3.15a44.77,44.77,0,0,0,5.55,4.15,36.37,36.37,0,0,0,5.62,5.54,6.38,6.38,0,0,0,.75,1.06,18.88,18.88,0,0,0-2.23,2.73,29.69,29.69,0,0,0-5.62.92l.31,1.16q-4.07,4.5-4.06,7.39-4.68,5.37-4.68,6.23v5.77q0,2-8.12,14.54a89.85,89.85,0,0,1-6.87,18.24q-.48,2.18-1.05,4.32-3.08.93-6.37,2.2h-.63l-.62-.23c-.21-3.38-.31-5.62-.31-6.69l.63-2.08v-.23q-1.56-1.5-1.56-2.31v-.23a4.46,4.46,0,0,1,.63-2.54,11,11,0,0,1-.31-1.38q0-2.66-.31-18.93a34.12,34.12,0,0,1,.94-6.92q-.39,0-.62-6.69,0-1.9,2.19-4.16a5.29,5.29,0,0,0-.94-2.77q-5.31-1.78-5.31-6.69l.31-.46q-.78-3.69-2.81-3.69l-4.68,1.15h-.62c-1.72-.5-2.65-2.81-2.81-6.93q0-1.38-5-1.38c-3.33,0-6.35,3.77-9.37,11.31q-3.82,12.28-5.93,16.16-7.8,19.56-10,28.85-5.31,8.78-5.31,10.85v2.77q0,1.9-5,9.23a56.06,56.06,0,0,1-3.43,9.46q-9.66,3.42-15.26,5.74c.42-1.54.9-3.21,1.44-5q6.56-15.81,6.56-19.39a6.07,6.07,0,0,0,1.87-4.39l6.25-13.85-.62-4.39q0-1.72,4.37-6.69,0-6.87,13.43-20.55v-.69h-.31l-.62.23q-2.73,3.93-4.68,3.93c-1.72,1.69-2.86,2.54-3.43,2.54l-.63-.23a14.22,14.22,0,0,1,3.12-4.16,17.3,17.3,0,0,1,6.56-7.85,12.45,12.45,0,0,1,2.81-5.54q-1.17,0-8.43,4.62H238V161q0-2.31,5.62-8.31.78-3.69,1.56-4.62v-.23h-.31q-1.56.75-6.56,6.69-12.65,10.22-15.93,15.23h-.62a8.14,8.14,0,0,1,.94-3q3.75-5.88,3.75-7.16c3.12-3.88,4.68-6,4.68-6.46v-.46h-.63c-1.87.92-4.06,3.16-6.56,6.69q-8.75,6.93-8.74,10.39a49.37,49.37,0,0,0-7.18,9q-5.78,2.84-8.43,10.39-7.8,7.28-7.81,8.54a28.87,28.87,0,0,0,.62,3.92,4.42,4.42,0,0,1-1.87,3.23,60.66,60.66,0,0,0-7.81,7.39,11.58,11.58,0,0,1-6.25,6.23q-2.19,0-2.19-1.38-1.56-4.68-4.06-5.54a9.48,9.48,0,0,1,.94-4.62c-.21-4-.31-7.16-.31-9.46v-8.08a54.85,54.85,0,0,0-.62-6.69c0-1.23,1.35-3.86,4.06-7.86a11.32,11.32,0,0,0-.62-2.08q-3.12-3.75-3.12-4.16v-.46a23.82,23.82,0,0,1,1.87-4.85c-1.35-3.23-2.92-4.85-4.68-4.85a7.51,7.51,0,0,0-4.37,1.85q-5,6.28-6.56,6.46-6.17,0-8.43,3.92a29.64,29.64,0,0,1-4.68,10.85,13.37,13.37,0,0,1-4.37,9.93q-2.12,7.22-10.62,24.93c.42,0,.62,1.15.62,3.46v.69q-5.31,7.84-5.31,9.46-6.24,11.49-6.25,12a209.46,209.46,0,0,0-10.62,22.85v.46l.62.69q1.17,0,5-6.92h.94q-3.12,7-6.25,16.39-1.32,8.19-2.5,10.4c0,.31.21.46.63.46h.62a94.1,94.1,0,0,0,5.31-9.93h.94c0,1.35-.83,3.65-2.5,6.92q-.46,7.4-1.25,7.39a54.1,54.1,0,0,0-2.5,12.24v.23c0,.31.21.46.62.46.57,0,1.2-1.69,1.87-5.08q5.94-13.44,7.18-14.31h.31v.23c0,1.92-.83,4.85-2.5,8.77q0,.4-3.12,14.08v10.16c0,.31.21.46.63.46s1-1.54,1.56-4.62a133.21,133.21,0,0,1,9.68-22.85A68.69,68.69,0,0,1,126.22,278l2.81-9.23q5.07-11.53,6.25-12.93h.31q-.32,4.62-.31,6.93V263h.31a7.14,7.14,0,0,0,2.81-2.77,96.45,96.45,0,0,1,8.12-16.62q3.28-11.84,8.43-16.39h.62l.63.23q0,11.25,4.37,14.54h2.5l1.56.23a10.05,10.05,0,0,0,7.18,3q2,0,5.62-2.77c2.13-4.42,4.84-7.43,8.12-9q5.55-7.39,8.74-7.39h.94v1.38q-3.43,7.91-3.43,9.23-6.24,11.72-6.25,12.93c-2,2.77-3.63,5.15-4.87,7.18l-.36.21v.38c-1.56,2.62-2.43,4.58-2.58,5.85l.31.92h.31c1.46-1.08,2.19-2,2.19-2.77h.94v.23c0,.73-.73,1.88-2.19,3.46Q176.18,274,173.37,278a56,56,0,0,0-5.31,15.46l-2.81,10.39.31.92h.62q2.19-1.22,2.19-2.31.54-6.93,6.87-14.31c.94-3.12,2.08-5.19,3.44-6.23H179q0,7.74-7.81,20.78,0,4.15-3.44,14.54a38.18,38.18,0,0,1,.31,3.93,33.88,33.88,0,0,0-.94,4.39V326c0,1.15.31,1.77.94,1.85h.31q2.1-9.35,4.06-10.62,2.58-8,5.62-11.31l1.87-8.08q5-12.69,6.25-12.7h.31q0,6.53-5,18.47l-1.25,7.62.31.92h.94q0-.87,3.75-9,5.39-7.85,10.3-27.93,4.36-9.28,4.37-10.16h.62V266q0,.75-3.12,13.16c.21,0,.42.38.62,1.15.83.69,1.25,1.15,1.25,1.38h.31l2.19-2.54-.62-.69q0-2.59,4.06-12,1.25-4,2.5-9.58a57.47,57.47,0,0,1,9.76-1.73h.31v.23a132.14,132.14,0,0,0-5.31,16.39l.31,1.15h.31q.85,0,3.44-3.92h.31v1.38q-2.19,5.49-5.62,17.54l.63,1.62h.94a64.34,64.34,0,0,1,5-9.23h.94q-6.24,22.21-6.87,25.85l.62,1.38c.36,0,1.09-.69,2.19-2.08q3.43-8.54,8.12-18,6.24-16.44,8.74-21.7h.94Q229,277.53,229,279.37a11,11,0,0,1,.31,1.38h.94c.42-.92.83-1.38,1.25-1.38a88.87,88.87,0,0,1,5.31-12.7q6.79-19.16,9.37-19.16a96.62,96.62,0,0,0,12.18-3.46h1.87l.62.23a14.55,14.55,0,0,1-.31,3,9.93,9.93,0,0,1,.62,2.08q0,2.59-.31,7.85c0,.77.1,1.15.31,1.15q1.56,25,2.19,25.85H264a11.92,11.92,0,0,0,.94-3.69v-4.39a14,14,0,0,1,.62-4.39,9.19,9.19,0,0,1-.31-2.31,6.88,6.88,0,0,1,.62-2.08h.62a17.26,17.26,0,0,1,.94,4.62,32.64,32.64,0,0,1-.94,4.85c0,1.38.52,6.39,1.56,15,0,.31.21.46.62.46H269c1,0,1.66-1.15,1.87-3.46v-4.16a8.06,8.06,0,0,1,.62-2.77h.62q1.25,3.69,1.25,16.39v1.38a9,9,0,0,1-.31,2.08q1.25,13.39,3.75,17.54h.63c.47,0,.78-.69.94-2.08a41.06,41.06,0,0,1-1.25-5.31,14.79,14.79,0,0,0,.94-3v-12a12.44,12.44,0,0,1,.62-4.85h-.31a38.49,38.49,0,0,1,.62-6.46,11.33,11.33,0,0,1-.31-3v-.23H279l.62.23q1.88,16.16,4.06,16.16H284c.47,0,.78-.62.94-1.85,0-.14,0-.25,0-.38a17.6,17.6,0,0,0,1.21-5l7.49-22.85q2.26-15.93,4.68-15.93h.31v1.85q0,3.59-2.19,16.39a37.67,37.67,0,0,0,1.25,5.54h.31q2,0,5.62-16.62,6.24-16.5,6.25-18.24h.62c.42,0,.62.15.62.46,0,1.54-.1,3.38-.31,5.54a1.46,1.46,0,0,1,.31.69h.63l.94-.46q7.34-18.69,8.12-18.7h.94q1.32,0,6.56,10.39,2.15,4.24,13.28,20.78c-1.45.47-3,1-4.69,1.61,0,2.62,1.46,3.92,4.37,3.92h2.5c.47,0,.91,0,1.36,0q6.66,13.51,9.73,14.75l1.56-1.85q5.31,4.79,5.31,8.31,9.06,13.28,11.24,18.93,7.33,11.31,8.43,11.31c.83-.31,1.25-.54,1.25-.69v-.23a10,10,0,0,0-1.25-4.15q-5.94-6.29-5.93-8.77-5.31-11.94-5.31-12.7v-.23h.31a128.52,128.52,0,0,1,14.68,23.55q0,1.15,11.24,14.31,7.11,11.08,10,11.08v-.23c0-1-.94-2.74-2.81-5.08-1.2-3.62-2.34-5.85-3.44-6.69q-2.8-6.41-5-7.62a72.19,72.19,0,0,1-3.75-7.62q-4.29-4.5-8.74-15.93v-.46h.31a18.51,18.51,0,0,0,2.81,2.77q1.8,4.15,7.18,8.54c2.5,4.16,4.27,6.23,5.31,6.23.63-.58.94-1,.94-1.15q-.15-.87-5.31-8.31-2.5-7.68-3.75-9.69-7.5-8.78-7.49-12.24c-.85-1.29-1.61-2.5-2.29-3.62a25.28,25.28,0,0,1,3.07.39q4.68-2,4.68-9a54.67,54.67,0,0,0,5.93-5.08q38.71-2.07,46.22-2.77c4,0,7.29.08,10,.23Q462,262,462,261.3v-.46l-1.56-.23h-5.93a158.11,158.11,0,0,1-19.67-.92q0-.4,1.56-.69,12.88,0,25-.69c1.94,0,3.71,0,5.34.05l0,.12q.32,7.22,1.25,8.54,8.43,7,8.43,9.23.63,3.81,7.81,9.69,5.85,3.22,10.3,3.23,8,0,20.61-5.54a31.77,31.77,0,0,0,10-9.93q2-9.34,5-11.54,2.1-8.25,5-9.93a38.41,38.41,0,0,1,2-5q16-2,19.45-4.92h1.56c.42,0,.62.15.62.46V243a2.27,2.27,0,0,1-.62,1.38q0,.75,1.56,2.31v1.85q-1.87,6.93-1.87,9.69,0,2-5.31,15.7c0,.38.1,1.54.31,3.46,0,1.62-.73,4.23-2.19,7.85a75.33,75.33,0,0,1-2.81,14.08,6.27,6.27,0,0,0,.94,2.77h1.25a9.75,9.75,0,0,0,4.68-4.39q0-2.54,3.75-2.54,7.8-6.28,7.81-9.46l6.25-4.85a19.8,19.8,0,0,1-.62-2.54q0-7.91,8.74-18.24.93-18,4.37-19.62,2.34-5.53,3.75-5.54c0,.15.31.31.94.46q1.71-1.16,11.87-3.46,9.28-2.13,20.3-10.85,9.38-3.69,18.11-13.62a15.08,15.08,0,0,0,5.93-5.31q9.67-7.56,9.68-17.77,0-2.94-2.81-12.46,0-4.11-5.79-7.32l.09-.34q2.18-5.59,3.8-9.85l1.19,4q2.58,7.33,5.31,10.85h.63l-4.37-11.54a62.43,62.43,0,0,0-.77-8.57l.51-1.37a14.16,14.16,0,0,0,3.37,6.49q0,1.62,10,23.54,2.58,7.33,3.75,9l.63-.23a5.46,5.46,0,0,0-.63-2.54q-5.31-11.49-5.31-15.93-7.18-23.25-7.81-27c-.36-.62-.69-1.29-1-2,.49-1.35.93-2.57,1.34-3.66q3.22,10,4.34,12.09a43.19,43.19,0,0,0,4.06,10.85c.42,0,.62-.15.62-.46v-.23c0-1.54-.21-2.31-.62-2.31q-2.53-12.77-4-15.82l.26-.28q3.2-15.65,5-17.08,3.68-12,5.93-12l1.25.23c.21,0,.31-.23.31-.69q12.4-3.53,13.12-4.85a107.65,107.65,0,0,0,10.62-2.54h1.56l1.56.69a3.24,3.24,0,0,1,1.25-.23,13.37,13.37,0,0,1-.31,2.54q0,3,.31,6.23l-.63,14.54q.32,5.31,1.56,5.31h.31a24.33,24.33,0,0,1,1.25-3.23h.62c0,1.08.1,2.77.31,5.08a21,21,0,0,1-.31,3.23,33.29,33.29,0,0,1,.31,5.08v.23a29.16,29.16,0,0,1-.62,3.93q1.1,10,2.19,12.23h.31q1,0,3.12-17.08l-.31-2.77c0-.92.1-2.54.31-4.85h.62v11.08l2.5,17.08v3a8.43,8.43,0,0,0,1.25,4.39c.42,0,.62-.15.62-.46v-3.92a13.37,13.37,0,0,1,.31-2.54,20.79,20.79,0,0,1-.62-5.77,125.36,125.36,0,0,0,1.56-21.24V133.3h.62l.31,1.16v2.08q0,1,4.06,26.55a11,11,0,0,0-.31,1.38c.21,0,.31.23.31.69h.62l.62-.23q0-2.53.94-12.7a27.84,27.84,0,0,0-.31-3.46,29.54,29.54,0,0,0,.62-4.62q0-1.1-1.56-14.77a17.07,17.07,0,0,0,.62-3.23v-3.93h.62q1.24,7.16,2.81,9.93H728c.42,0,.62-.15.62-.46v-1.15a94.31,94.31,0,0,0-3.75-27.47,11.33,11.33,0,0,1,.31-3,15.2,15.2,0,0,1-.31-3.23V95.22a1.44,1.44,0,0,1,.31-.92c3.59-1.31,5.78-2.69,6.56-4.16-.62-3.08-.94-4.85-.94-5.31a13.77,13.77,0,0,1,1.56-3.23v-.23ZM13.72,151.1h-.31l.62-1.62h.62c-.21,1.08-.52,1.62-.94,1.62Zm4.68-34.39h-.94q0-1.26,2.19-4.85l.62.23Q20.27,113.25,18.4,116.71Zm54,41.32a1.23,1.23,0,0,1-.94,1.38v-1.62l.31-1.15h.63V158Zm15.3,4.16-.62,1.62h-.62c0-.12.1-.73.31-1.85h.94v.23Zm110-119.64h1.56v.23q0,.81-8.12,1.62h-1.87l-.63-.23a.65.65,0,0,1-.26.14c0-.68.14-1.44.26-2.25,2.13,0,3.91,0,5.3,0l3.75.46Zm-7.49-6.46v.23c0,.26-.44.44-1.3.56,0-.24,0-.5-.06-.79ZM165.87,85.55q-5.38,3-7.49,3h-2.81V86.93q0-1.32,3.75-7.85,0-6.12,4.06-9.46H164c1,.27,1.67,2.65,1.87,7.16v8.77Zm25-5.31h-.63L189.6,80c-.21-3.38-.31-5.62-.31-6.69l.63-2.08V71q-1.56-1.5-1.56-2.31v-.23a4.46,4.46,0,0,1,.63-2.54,11,11,0,0,1-.31-1.38q0-2.47-.27-16.82L199,47.18c1.92,0,3.7.08,5.31.23,1.25,0,1.87,1.31,1.87,3.92A22.72,22.72,0,0,1,204,60.56q0,7-4.68,14.77l-.48,2.25c-2.53.71-5.17,1.59-7.95,2.65ZM109.74,292.93h-.31l.62-1.62h.62c-.21,1.08-.52,1.62-.94,1.62Zm4.68-34.39h-.94q0-1.26,2.19-4.85l.62.23Q116.29,255.08,114.42,258.54Zm54,41.32a1.23,1.23,0,0,1-.94,1.38v-1.62l.31-1.15h.63v1.38Zm15.3,4.16-.62,1.62h-.62c0-.12.1-.73.31-1.85h.94V304Zm78.14-76.64q-5.38,3-7.49,3h-2.81v-1.62q0-1.32,3.75-7.85,0-6.12,4.06-9.46H260c1,.27,1.67,2.65,1.87,7.16Zm26.23,5.77.72-.2q-1.26,5-2.25,7.78Q287.24,234.48,288.11,233.15Zm-1.64,9.64h.62v.69h-.62Zm.16,9.55c-.12-.38-.25-.76-.4-1.18l.31-2.08c0-.34-.07-1.41-.2-3.19a4.32,4.32,0,0,0,1.37.59v1.15a15.15,15.15,0,0,1-1.09,4.7Zm-2.89,2.51h.62a2.63,2.63,0,0,0,.59,1.57c-.51,1.12-1.1,2.35-1.76,3.65-.06-.86-.09-1.68-.09-2.45,0-.15.21-1.08.62-2.77Zm6.48,1.79a48,48,0,0,0-1.56,6.69,143.11,143.11,0,0,0-4.6,24.23v-1.32q0-1.5.62-9.23l.31-1.16a31.47,31.47,0,0,0-.94-4.62c0-.12,0-.45.09-1l4.2-9.48q1.1-4.62,1.56-4.62h.31v.48Zm2.5-6.93h-.62V249h.62Zm83.37,58.4h.31c.78.31,2.45,2.38,5,6.23v1.38l-.31.46q-5-5-5-7.39v-.69ZM402,334.19h.31c.42,0,.62.15.62.46v.23H402v-.69Zm-7.81-27c.78,0,1.51.92,2.19,2.77v.23h-.31a6.66,6.66,0,0,1-2.19-2.54ZM642,144.09a23.48,23.48,0,0,1-1-5.11q-2.51-14.14-3.43-15.47v-.92h.62q.63,2.43,3.75,10.39c.75,1.43,1.42,2.75,2.06,4C643.29,141,642.63,143.35,642,144.09ZM617.24,52.42c1.46-3.54,2.19-5.92,2.19-7.16V43.64a2.36,2.36,0,0,1,.94-1.62c1.87-.65,2.81-1.27,2.81-1.85q8-4.62,12.49-4.62,0-1.56,13.74-3a15.32,15.32,0,0,1,4.06.69v2.54q0,1.44-5.31,5.54-5.24,5.07-15.93,7.16-4.85,3.63-14.36,4.85h-.63v-.92ZM596.32,51a3.1,3.1,0,0,1-1.56,2.77q-5.7,14.6-9.37,21.93a48.11,48.11,0,0,1-5.62,12.93,99.93,99.93,0,0,0-6.65,14.07,123.88,123.88,0,0,0-6.77-10.6q-4.85-12.65-5-17.08,0-2.66,14.36-6.93a37.88,37.88,0,0,0,18.74-14.54,13.8,13.8,0,0,0,1.65-2.92,4.27,4.27,0,0,1,.22.38Zm-11.5,108.27c-3-10-4.73-16.05-5.05-18l-.15-.28c.37-1.21.75-2.33,1.14-3.35a90.56,90.56,0,0,0,3.69,10.09,42.86,42.86,0,0,0,4,10.76c-1.07.2-2.29.47-3.64.8Zm-10.36-.7c.4,1.14.81,2.21,1.22,3.22l-2.38.72c.34-1.55.68-3,1-4.42Zm-12.73,22H562v.46c-1.21.6-2.3,1.17-3.29,1.71.21-.64.41-1.27.61-1.91a17.74,17.74,0,0,1,2.37-.27Zm-9.37,7.62v.23h.31l.23,0a9.51,9.51,0,0,1-1.72,2.33q-4.45,10.4-5.93,10.85h-.31V201q2.16-6.64,6.26-17a29.28,29.28,0,0,1,4.66-2.12c-.54,1.44-1.06,2.72-1.56,3.83-1.29,1-1.94,1.9-1.94,2.6Zm-14.29,27.24h-.31v-.23a11.91,11.91,0,0,1,2.19-3.93l.63.23a4.57,4.57,0,0,1-2.5,3.93ZM529.64,201h-.31c.6-2.53,1.2-4.77,1.81-6.76l3.33-1.73Q531,201,529.64,201Zm30.91-30.73q-2.62,1-4.54,1.85c.1-.23.19-.46.29-.7,1.06-.55,2.24-1.22,3.55-2.05H561C560.88,169.62,560.71,169.92,560.55,170.22Zm-4.45,5.34c0-.23.42-.46,1.25-.69l.62.23c0,.23-.42.46-1.25.69Zm-10.64,6.71a19.72,19.72,0,0,0-2,1l1.52-3.41c.74-.32,1.49-.63,2.27-.91C546.59,180.21,546,181.32,545.46,182.27Zm17.61-16.63h-.33l-.09.2c-1.56.74-3.28,1.63-5.16,2.69q3.48-8.29,7.75-18.14c.16-.51.31-1,.47-1.48h0c1-3.14,1.84-5.73,2.54-7.8l.26.55c-.74,4.14-1.27,8-1.55,11.64,0,.31.21.46.62.46l.63-.23c.71-2.92,1.37-5.62,2-8.14a37.39,37.39,0,0,1,1.43,3.75l1,3.48a99.58,99.58,0,0,0-.7,10.32l-1.19.37q-2.7,0-7.71,2.32Zm-3.3-43h.62Q561,125,564.14,133c1.13,2.16,2.13,4.12,3,5.9-.12.35-.24.72-.36,1.12l-2.4,4.62A25.72,25.72,0,0,1,563.2,139q-2.51-14.15-3.43-15.47Zm15.93,5.54.31-.46a10.05,10.05,0,0,1,1,1.55c-.24,1.21-.44,2.26-.6,3.13-.3-1.34-.56-2.74-.76-4.23ZM539.48,52.43c1.46-3.54,2.19-5.92,2.19-7.16V43.65a2.36,2.36,0,0,1,.94-1.62c1.87-.65,2.81-1.27,2.81-1.85q8-4.62,12.49-4.62,0-1.56,13.74-3a15.32,15.32,0,0,1,4.06.69v2.54q0,1.44-5.31,5.54-5.24,5.07-15.93,7.16-4.85,3.63-14.36,4.85h-.63v-.92ZM493,47.35,503.25,46h.94a1.42,1.42,0,0,1-.31.92q-10,5.53-10,6.93a4.35,4.35,0,0,0,2.19-.69Q502.32,49,506.38,49h1.87a1.46,1.46,0,0,1-.31.69q-3.44,1.56-3.43,3.46v.23c.1.31.62.62,1.56.92a9.27,9.27,0,0,0,2.5-.46q5.16-3.69,8.74-3.69h.31c.31,0,.62.31.94.92A3.1,3.1,0,0,1,517,53.81q-5.7,14.6-9.37,21.93A48.11,48.11,0,0,1,502,88.67a95.86,95.86,0,0,0-7.55,16.61c-.18-.67-.36-1.35-.56-2a11.33,11.33,0,0,1,.31-3A15.2,15.2,0,0,1,493.9,97V95.42a1.44,1.44,0,0,1,.31-.92c3.59-1.31,5.78-2.69,6.56-4.16-.62-3.08-.94-4.85-.94-5.31a13.77,13.77,0,0,1,1.56-3.23v-.23q0-.57-7.18-1.62-3.75-3.47-5.62-3.46-1.56,0-3.12-26.32v-.12c2.06-.65,4.54-1.54,7.49-2.71ZM470,201.79a14.46,14.46,0,0,0,1.61-.35c-.12,1.57-.24,3.17-.36,4.81H470v-4.46Zm-.62-11.69a9.19,9.19,0,0,0,.31-2.31c-.16-1.08-.47-1.62-.94-1.62h-.31v6a5.38,5.38,0,0,1-1.56,3.23c-.11,1.66-.22,3.25-.34,4.78-1.11,0-2.37-.08-3.8-.11q-7.11,0-13.43.46c-3.33-.15-5.52-.31-6.56-.46a16.14,16.14,0,0,1-3.75.46h-.31v-.69q9.38-1.38,9.37-2.77c-.21,0-.31-.08-.31-.23q-8.89,0-28.1.92H419l-5-.69v-4.15q0-5.78,1.87-7.62,13.28-.47,18.11-.46h.31a11.76,11.76,0,0,1,3.44-1.38,106.48,106.48,0,0,0,17.8-1.62Q468,180,473.36,177v-.23l-.31-.46a45,45,0,0,1-5.93.46h-.31v-.23c0-.62,1.66-1.08,5-1.38l3-.57q-1.89,10.72-3.13,26a14.26,14.26,0,0,0-1.67-.24v-1.07a63.94,63.94,0,0,0-.62-9.23Zm9.68-12.7h-.31c-.2-1.3-.39-2.45-.57-3.47l2.6-.5c-.67,2.64-1.24,4-1.73,4Zm6.09-21a125.36,125.36,0,0,0,1.56-21.24V133.5h.62l.31,1.16v2.08q0,.72,1.92,13c-.14,1.22-.26,2.43-.35,3.59,0,.31.21.46.62.46l.35-.13q.52,3.28,1.14,7.22c-.52-.61-1.17-1.47-2-2.61h-1.25a9.8,9.8,0,0,0-2.65,2.53,26.06,26.06,0,0,1-.32-4.41Zm8.12-33.93h.43c-.12.56-.27,1.19-.43,1.9Zm-.16,39.4c.15-2.23.41-5.35.78-9.39a30,30,0,0,0-.31-3.46,29.54,29.54,0,0,0,.62-4.62c0-.37-.13-1.8-.39-4.28.88-3.42,1.67-6.35,2.37-8.81a11.17,11.17,0,0,0,.52,1.09H497c.42,0,.62-.15.62-.46v-1.15c0-1.38,0-2.74-.08-4.09.86-2.69,1.51-4.28,1.95-4.74h.94v1.85q-2.19,10.28-2.19,11.77a112.8,112.8,0,0,0-4,26.44l-1.14-.15Zm-18.58-34.78.31-.46c.42,0,.62.15.62.46v.23c0,.31-.21.46-.62.46h-.31ZM452.36,76.5q1.09-9.47,2.5-9.46l2.5-7.39c2.29-.42,3.44-1.12,3.44-2.08H463q5.16,0,5.93,20.31a28.79,28.79,0,0,0-1.25,6.69v.23l-.94.92q-5.46.93-16.86,3.69c-.36,0-.57-.15-.62-.46a29.65,29.65,0,0,1,3.12-12.46Zm-10,33.93,1.25.23c.21,0,.31-.23.31-.69q12.4-3.52,13.12-4.85a107.65,107.65,0,0,0,10.62-2.54h1.56l1.56.69A3.24,3.24,0,0,1,472,103a14.25,14.25,0,0,1-.31,2.54q0,3,.31,6.23l-.63,14.54q.31,5.31,1.56,5.31h.31a24.33,24.33,0,0,1,1.25-3.23h.62c0,1.08.1,2.77.31,5.08a21,21,0,0,1-.31,3.23,33.29,33.29,0,0,1,.31,5.08v.23a29.16,29.16,0,0,1-.62,3.93q1.1,10,2.19,12.23h.31q1,0,3.12-17.08l-.31-2.77c0-.92.1-2.54.31-4.85h.62v11.08l2.5,17.08V164a35.08,35.08,0,0,0-1.72,4.41c-.16.85-.32,1.63-.47,2.36l-3.75.39c-.17-.76-.32-1.38-.46-1.82h-1.25l-.31.92c-.08.36-.15.74-.22,1.11-7.37.68-13.69,1-18.9,1l-.63-.23.63-.69q13.42-1.74,13.43-3,0-.41-1.56-.69,0,.28-5.31.69c-.47,0-1.61-.08-3.44-.23q-11.94,1.38-26.23,2.31-9.37-.47-13.43-.46H419a9.41,9.41,0,0,1-4.09-1.32c.37-1.16.77-2.58,1.2-4.31q8.75-22.5,8.74-23.55,4.14-11.65,5-12h.31v.23a36,36,0,0,1-1.56,6q.63,5.88.94,6c.31,0,.94-.54,1.87-1.62q3.19-15.64,5-17.08,3.68-12,5.93-12ZM366.89,32v.23q0,.63-3.44,3.23l.63.23h3.43c.42,0,.62.15.62.46v.46a19.18,19.18,0,0,0-1.56,5.08v5.54q-4.06,18.59-5.93,24.7A60.53,60.53,0,0,1,358.45,86,53.34,53.34,0,0,1,355,101.24q-1.25,14.54-3.75,16.16a1.21,1.21,0,0,1,.16.16l-.71.19q-15.54.69-17.17,1.38H332.3v-1.38q3.12-6.69,3.12-10.85l3.12-10.85V90.28l4.37-19.16Q347,58.83,347,49.42V48c0-.54,1-1.92,3.12-4.16q.39-6.47,1.56-6.46c3.23-1.19,4.89-2.19,5-3q6.33-1.32,7.18-2.31l1.55-.31,1.49.19Zm-12.8,88.87a7.75,7.75,0,0,1-1.48,1.18v-.38l1.25-1.15.12-.07a1.14,1.14,0,0,1,.12.41Zm-17.49,8.77q-.66,0-8.4,1.36,5.42-2.52,18.78-5.17c.35,0,.66-.09,1-.14q-10.45,2.67-11.36,3.95Zm3.44,2.31v.46h-.31c-.36,0-.57-.15-.62-.46H340Zm-15.54,2.42a2.3,2.3,0,0,1,.86-1.61c1,.14,2.21.25,3.75.34q2.65,0,8.43-.23v.23l-.31.46q-7.5,1.62-8.43,3a56.32,56.32,0,0,0-6.71,2.09,12.82,12.82,0,0,1,2.42-4.29Zm81.73-60.59v2.31q0,2.37-6.25,7.85-3.28,7.78-8.74,10.85a17.13,17.13,0,0,1-4.06,5.54q-2.34,3.69-7.81,3.69h-.31l-.63-.23a7.18,7.18,0,0,1,.94-2.77l-.31-1.15c.05-1.54.26-2.31.62-2.31a54.09,54.09,0,0,1,3.12-12c-.21,0-.31-.08-.31-.23V83.7h.94q2.19-5.53,6.25-5.54,9.21-5.31,12.49-5.31H405C405.81,73.24,406.23,73.54,406.23,73.77Zm-5.62-40.63a4,4,0,0,1,3.12,4.15v1.85a7.91,7.91,0,0,1-1.25,3.92q-6.94,6.93-10,8.08C388,56.37,385,59,383.43,59h-.31V57.84c.31-.46.63-.69.94-.69a1.46,1.46,0,0,0-.31-.69q2.5-6.75,2.5-7.85V44q0-7.62,2.81-7.62l-.31-1.62c0-1.23,1.14-1.85,3.44-1.85h1.56q3.28,0,6.87.23ZM357,19.87c.42-.28.78-.53,1.09-.76l4.51.43c-2.09.29-3.65.55-4.67.79H357v-.46ZM243.62,54.55C241,56.86,238.88,58,237.37,58h-.94c-1.25,0-1.87-.38-1.87-1.15a24.13,24.13,0,0,1,1.25-6.23q1.09-10.4,8.74-10.39,1.88,0,7.49.23,15.38-1.84,18.42-3.46c4,.16,5.93.69,5.93,1.62v.46q-1.72,2.07-8.43,4.85-6.87,4.62-8.43,4.62a83.42,83.42,0,0,1-15.93,6Zm29,29.32Q262,68.81,262,67.48V67c0-.35,1-.73,3.12-1.15A126.74,126.74,0,0,0,294.2,55q22.32-5.72,24-8.31a11.05,11.05,0,0,0,2.15-.78,8.45,8.45,0,0,1,1.6,3.49q0,4-6.25,19.62v.23A21.35,21.35,0,0,1,317.93,73v.23q-6.24,24.12-8.12,29.08-.58,5.63-4.2,16.74c-1.72-1.36-3.54-2.76-5.48-4.22q-11.4-9.06-14.68-16.85c-4-3.27-5.93-5.12-5.93-5.54q-6.87-6.53-6.87-8.54Zm7.49,39v-.69h.63q4.49,4.09,6.89,6.47a3.15,3.15,0,0,0-1.05,1.69c-1-.84-1.46-1.48-1.46-1.93q-5-5-5-5.54Zm21.23,14.53,1.25.18c0,.52,0,1,.08,1.48-.44-.54-.87-1.09-1.32-1.65h0Zm5.44,6.74.5-.1v.71Zm16.11,5.5.31-.46c.63.23.94.46.94.69v.23h-.62c-.36,0-.57-.15-.62-.46Zm1.25.92q1.88,0,4.68,3.69v.23h-.62c-.57-.19-1.93-1.5-4.06-3.93Zm4.14,43.72v-.92a11.27,11.27,0,0,1,1.25-4.39,13.28,13.28,0,0,1-.31-2.54v-.69q0-.93,5-9.23c-.31,0-.52-.92-.63-2.77v-.46c1.37-2.15,2.35-3.75,3-4.83a19.74,19.74,0,0,0,4.14,2.89h.62v-.46c0-1-1.34-2.33-4-4.13a1.33,1.33,0,0,1-.27-.63l-.33-.26a46.89,46.89,0,0,0-3.36-4.58,4,4,0,0,1-.06-.69v-.69a55,55,0,0,0,10.23,8.22c3.89,3.35,7.14,6,9.79,7.89a11.1,11.1,0,0,0-1,1q0,2.07-9.68,7.16-10.23,9.69-13.74,10.16h-.62Zm61.36,3.46c0,.15-2.29.54-6.87,1.15q-4.06,0-4.06,4.15-7.26,1.44-10.62,4.39v.23q0,3.22,9.37,4.15a36.83,36.83,0,0,1,4.06-.23h.62c1.87,0,2.81.77,2.81,2.31v.46a79.08,79.08,0,0,0-4.06,9.23l-3.12,8.31c0,.16.21,1.92.62,5.31v.46c-1.46,3.43-2.19,5.81-2.19,7.16v3.69c-.42,2.16-1.46,3.23-3.12,3.23-.49.14-2.08.4-4.75.79q-7.94-9-13.52-16.26a43.42,43.42,0,0,1-7.18-8.08q-7.57-6.22-8.43-11.08l.31-1.62q0-3.63,5.62-6.23,3.82-5.72,5.93-6.69,4.45-4.72,7.49-6a82.59,82.59,0,0,1,9.68-8.77c0-.27-.21-.42-.62-.46a30.61,30.61,0,0,0-4.37,1.39v-.23q0-1.22,5.31-6.46l2.81-1.92q5.19,1,22.64,3.77-2.1,13.85-4.37,13.85ZM395,171h-1.25l-10-.49c.05-.07.12-.14.16-.2q12.5-8.59,12.49-10.39h-.62q-5.17,0-19.15,10.24l-1.23-.06a13.25,13.25,0,0,1,1-1.63q5.93-4.91,5.93-5.31v-.23a7.82,7.82,0,0,0-5,2.08,79.84,79.84,0,0,0-18.55,12.76c-.11-.27-.26-.56-.42-.87l1.17-2.43c0-.15-.31-.31-.94-.46a7.8,7.8,0,0,0-2,.26A60.45,60.45,0,0,0,352,169q-15.61-12.93-15.61-13.85-8.19-6.52-8.43-8.77l-6.29-6.5.06-.17a72.3,72.3,0,0,1,14.27-2q2.34,0,8.43-2.77a35.3,35.3,0,0,1,8.74-3h4.37l.62.23A113.68,113.68,0,0,1,346.56,137a34.89,34.89,0,0,0-12.18,3.23v.23c0,.31.21.46.62.46a20.29,20.29,0,0,0,4.68-.69V140h-1.87v-.46a10.54,10.54,0,0,1,5.93-1.38v.46l-.31.46q21-5.78,21.86-5.77a95,95,0,0,1,9.68-1.62q4.29-2.78,6.25-2.77,7.26-3.47,10.93-4.16,5-4.62,5.62-4.62l8.84-6.84q7.59-2.77,13.88-4.53h.31v.69q-8.19,3.47-8.74,4.85v.23h.31a78.56,78.56,0,0,1,9.06-2.31v.23l-6.25,14.31c-.42,3.5-1.25,5.89-2.5,7.15A9,9,0,0,1,413,136v.23c-.88,5.39-1.72,8.08-2.5,8.08q-.93,6.46-2.19,11.77v2.54c0,.31.21.46.62.46h.31q4-14.53,7.18-14.54,2.34-5.31,3.12-5.54h.31q-4.06,11.14-4.06,15.7-2.17,8.67-3.08,12.71l-.59-.38h-.94a24.15,24.15,0,0,1-4.68,1.85,24.07,24.07,0,0,1-6.25-1.15q-1.49,0-5.31,3.23Zm39.66,75.48h-2.5l-.63-.23a12.12,12.12,0,0,0-3.12.69q-6.4,0-23.73,2.54a17.53,17.53,0,0,0-3.43-.46v-.92a6.35,6.35,0,0,0,1.25-1.85,7.74,7.74,0,0,1-.94-3.46,19.9,19.9,0,0,0,1.56-6.23q0-1.56,3.43-8.77c-.21-1.12-.31-1.73-.31-1.85a41.83,41.83,0,0,0,1.87-6.69V215.3q0-2.31,9.37-3.23,9.38-3,14.36-3a31.13,31.13,0,0,0,7.49-1.38h10.3a22,22,0,0,0,4.68-.69v-.23c0-.27-.21-.42-.62-.46q-7.26,0-13.74-.23c-2,.16-4,.23-5.93.23v-.46q3.12,0,12.18-1.85,13.65-.93,20.18-1.71-1.15,14.24-2.62,20.11.31,5.08.31,6.69a44.94,44.94,0,0,0-1.56,9.69,42.52,42.52,0,0,0,.44,5.86l-4,0q-3.51,0-24.36,1.85Zm11.87,3.69h-.31v-.23c0-.27,1-.58,3.12-.92a79.73,79.73,0,0,0,11.24-1.15c.92-.2,1.88-.38,2.85-.55.12.6.25,1.21.39,1.81q-11.4.48-17.29,1.05ZM494.37,269h-1.56c-2.86-1.38-4.39-4.72-4.64-10l6.43.32h7.34c-.63,1.46-1.18,2.83-1.65,4.1a10.77,10.77,0,0,1-5.93,5.54Zm19.36-39a40.09,40.09,0,0,0-1.56,6.46q-3.75,8-3.75,9.69c-2.22,4.14-4.06,7.84-5.55,11.12q-8.43-1.49-14.73-2.17a14.21,14.21,0,0,1,.27-2.28l4.32-.15H493l2.19-.23v-.69q-3.14-.63-6.33-1.11c.14-.55.29-1.11.47-1.72q1.25-16.8,4.37-24.47l-1.56-4.16q2.19-12.81,2.19-14.08c2.08-4.89,3.12-7.73,3.12-8.54v-3.23q5-4.38,5-6v-.92c-2.08-2.46-3.12-3.85-3.12-4.15a30.46,30.46,0,0,0,4.68-5.08c-.36-2-.89-3.23-1.56-3.69-3-1.85-4.73-3.39-5.35-4.62,1.22-.31,1.84-.52,1.84-.63v-.23c-.31-.46-.62-.69-.94-.69h-.31c-.27,0-.56,0-.86,0v-.31a48.64,48.64,0,0,1,1.87-4.62v-.69c0-.16-1.05-.39-3.11-.69a84.3,84.3,0,0,1,4.83-16,64.28,64.28,0,0,1,3.43-10.62q1.56-7.22,4.37-10.39h.62v1.62a5.32,5.32,0,0,1-.94,2.54c.16,1.23.47,1.85.94,1.85q2.58,0,4.06-9.93A163.82,163.82,0,0,0,522,95.11q5.93-7.27,5.93-7.85,0-4.56,9.68-6.46h.94c0,.89.63,3.35,1.87,7.39q7.19,15.7,17.49,40.17c.83,6.93,2.08,11.23,3.75,12.93.73,2.08,1.37,3.7,1.93,4.93q-8.08,15.66-13.33,26.56c-.61,1.3-1.19,2.5-1.74,3.62-.85.35-1.71.74-2.56,1.17a26.87,26.87,0,0,0,1.8-4.79v-.69h-.31q-.78,2.31-1.56,2.31h-.31q1.41-5.31,2.19-5.31h.31v2.31h.31a18.28,18.28,0,0,0,1.56-3.46,80,80,0,0,0,2.5-9.46v-.23l-.31-.46q-.32,0-1.56,1.38a72,72,0,0,1-5.31,12.47q-1.24,6.59-4.37,9h0c-1.38,1-2.76,2.05-4.13,3.23v.46a2.92,2.92,0,0,0,2.5-1.15c.32-.24.66-.47,1-.7a36.12,36.12,0,0,1-1.53,3.54c-3.17,1.3-4.78,2.06-4.78,2.24-.27.12-.56.27-.84.41.2-.47.4-.92.61-1.33v-.23c0-.27-.21-.42-.62-.46a12,12,0,0,0-3.36,3.85,100.42,100.42,0,0,0-9.53,6.54q0,.47-7.81,8.08a1.33,1.33,0,0,0,1.25,1.39c.68,0,1.82-.85,3.44-2.54,0-1.3,3.21-3.75,9.6-7.34-.36.86-.72,1.76-1.09,2.73q-.86,7.78-4.06,12.23-1.09,5.66-7.81,18.47Zm2.42-26.78v.69q-1.1,1.38-1.56,1.38h-.94c0-.61.73-1.31,2.19-2.08h.31Zm23.13,40.16c.25-.85.58-1.86,1-3,.35,0,.74,0,1.18,0h.31a33.15,33.15,0,0,1,9.06-2.54h1.25q0,3.1-12.78,5.54Zm40.26-63.24a21.05,21.05,0,0,1-1.25,6.23q-5.94,12.4-5.93,14.08A37.66,37.66,0,0,0,567.68,218v.23l-1.25,2.31q0,2.88-7.18,5.31c0,.23.1,1.31.31,3.23-1.93,2.92-4.22,4.39-6.87,4.39q-2.22,0-11.54,4.47,2.65-7.17,8.19-20.17l-.62-.23h-.31a6,6,0,0,0-2.5,2.54H545v-.46q3.75-6.87,7.81-19.85,2.67-7,4.9-13.66a84,84,0,0,1,19.69-7.58h1.25c.62.12.94.58.94,1.38v.23Zm-2.22-18.83-1.3-3.42c-.07-1.89-.17-3.52-.3-4.94.28-.92.56-1.79.84-2.62a13.23,13.23,0,0,0,2.58,4.09,32.2,32.2,0,0,0,2.11,5.78c-1.23.33-2.54.7-3.94,1.11Zm54,21.6q0,5.15-9.37,14.31-2.26,5.09-11.87,9.7-6.09,5-16.86,8.54H592a.55.55,0,0,1-.63-.46v-1.39q0-2.78,4.37-15.93a4.08,4.08,0,0,1-.94-2.08l4.06-12.7c0-2.88,1.14-4.89,3.44-6a9.05,9.05,0,0,0,6.56-2.77q0-2.31,11.55-4.39A18.55,18.55,0,0,1,631.05,173q.32,5.88.31,7.85v2.08Zm15.54-28.2c-.88,3.53-1.61,6.47-2.18,8.85-1.11-.49-2.33-1-3.68-1.43q-8-5.77-25-5.77-.93,0-12.18,2.08a17.56,17.56,0,0,1-4.68-.69A3.24,3.24,0,0,1,598,158h-1.87a6.67,6.67,0,0,1-2.5-.69c-.62.35-.94.58-.94.69a22.3,22.3,0,0,0-3.6.4.43.43,0,0,0,.09-.26v-.23c0-1.54-.21-2.31-.62-2.31q-2.58-13-4.06-15.93a24.75,24.75,0,0,0-1.59-8.6,17.23,17.23,0,0,1,3.16-5.94h.62v1.62a5.32,5.32,0,0,1-.94,2.54c.16,1.23.47,1.85.94,1.85q2.58,0,4.06-9.93a163.82,163.82,0,0,0,9.06-26.08q5.93-7.27,5.93-7.85,0-4.56,9.68-6.46h.94c0,.89.63,3.35,1.87,7.39q4.26,9.32,9.63,21.73l-1.82.72q-16.39,8.13-20.61,9.93V121H606q2.34,0,13.43-5.54,5.26-1.86,9.37-3.27l1.32,3.07-2.57,1.35v.23h.94l2-.78c1.66,3.89,3.4,8,5.21,12.27.83,6.93,2.08,11.23,3.75,12.93.72,2,1.35,3.66,1.9,4.88-.56,3.59-1.19,6.92-1.9,10v2.54c0,.31.21.46.62.46h.31q4-14.53,7.18-14.54l.05-.1c.33.74.64,1.45.89,2.08a32,32,0,0,0-1.56,8.18ZM661,128.86h.31v.23a13,13,0,0,1-.5,2.39c-.17-.5-.36-1-.57-1.49.34-.68.59-1.06.76-1.12Zm37.78-44.32v.23l-.94.92q-5.46.93-16.86,3.69c-.36,0-.57-.15-.62-.46a29.65,29.65,0,0,1,3.12-12.46q1.09-9.46,2.5-9.46l2.5-7.39c2.29-.42,3.44-1.12,3.44-2.08h2.19q5.16,0,5.93,20.31a28.79,28.79,0,0,0-1.25,6.69Zm7.81,42.7c0,.31-.21.46-.62.46h-.31V127l.31-.46c.42,0,.62.15.62.46Zm20.3-1.62h.31c.42,0,.62.15.62.46s-.21.46-.62.46h-.31Z"/><path class="cls-1" d="M337.89,13h2.81c1.56,0,2.39-.23,2.5-.69a31,31,0,0,1-3.75-.46c0,.31-.73.46-2.19.46v.23c0,.31.21.46.62.46Z"/><path class="cls-1" d="M723.46,75.47q0-.57-7.18-1.62-3.75-3.46-5.62-3.46-1.56,0-3.12-26.32V41.3A73.52,73.52,0,0,1,706,33.68v-.23q2.81-5,2.81-5.77a5.54,5.54,0,0,0-1.25-1.85c-3.33-2.38-5-3.85-5-4.39V21a1.83,1.83,0,0,1,.31-1.15q4.06-3.87,4.06-5.08c-.89-6.16-2.13-9.23-3.75-9.23h-1.25Q696.14,7.61,695,7.6h-.94q-2.19,0-5.62-3.69c-3.33.27-5,.58-5,.92q-3,0-6.56,6.93-5.62,7.84-5.62,8.54l1.25,3.93v.92a11.9,11.9,0,0,1-1.25,3.23q0,3.63-8.74,22.62-1,6.41-3.43,9.69Q653.82,77.09,652,81q-1,5.53-2.5,6.23c-2.77,1-6.33,2.43-10.63,4.33q-1.68-2.62-3.73-5.55-4.85-12.65-5-17.08,0-2.66,14.36-6.93a37.88,37.88,0,0,0,18.74-14.54q3.43-4.44,5-18,0-3.29-5.31-9.69a15.05,15.05,0,0,0-7.81-3.69L649.45,14l-2.19.23q-8.35-1.38-9.37-1.38a39.64,39.64,0,0,0-4.06.69q-12.33,2.78-15.93,2.77-9.06,3-11.24,3-8.67,2.54-10,2.54-6.87,1.68-6.87,3.46l-.65.2a36.67,36.67,0,0,0-4-5.74,15.05,15.05,0,0,0-7.81-3.69L571.68,14l-2.19.23q-8.36-1.38-9.37-1.38a39.64,39.64,0,0,0-4.06.69q-12.33,2.78-15.93,2.77-9.06,3-11.24,3-8.67,2.54-10,2.54Q512,23.53,512,25.31a66.45,66.45,0,0,0-10.3,3.92q-12.57,2.43-15.61,4.62l.31.46q1.88,0,14.05-1.85h.31v.23l-.31.46q-6.87,1.85-7.81,2.77c-4.37,2-7,3.35-7.81,4.15-1.72,0-4.55.75-8.43,2.2v-1a73.52,73.52,0,0,1-1.56-7.62v-.23q2.81-5,2.81-5.77a5.54,5.54,0,0,0-1.25-1.85c-3.33-2.38-5-3.85-5-4.39V21a1.83,1.83,0,0,1,.31-1.15q4.06-3.87,4.06-5.08c-.89-6.16-2.13-9.23-3.75-9.23H470.8Q465,7.58,463.93,7.58H463q-2.19,0-5.62-3.69c-3.33.27-5,.58-5,.92q-3,0-6.56,6.93-5.62,7.84-5.62,8.54l1.25,3.93v.92a11.9,11.9,0,0,1-1.25,3.23q0,3.63-8.74,22.62-1,6.41-3.43,9.69Q426.28,66,424.92,70q-1.46-5.9-8.69-8.39L405,57.72V54.49a1.44,1.44,0,0,1,.31-.92q9.21-5.94,10.3-8.08Q420,33,420,30V29.1q0-7.16-12.49-12.93,0-1.68-17.8-4.16l-7.45-.69c-.15-.48-1.28-.83-3.4-1l-3.35.42-.78-.07h-5q-9.68,1.08-19.9,1.75c.41-.34.62-.58.62-.72v-.23h-.31c-1.87,0-5,.77-9.37,2.31A19.81,19.81,0,0,0,330.44,17q-5.55,1.74-9.88,3.13a56.73,56.73,0,0,1-10.18,1.37v.23l.31.46c.58,0,2-.08,4.28-.24-2.54.84-4.59,1.55-6.14,2.11-.66-.4-1.35-.81-2.12-1.23q-21.54-5.31-29.66-5.31H273.3a83.8,83.8,0,0,0-10,.92q-2.73,0-6.87-.23-12.25,2.54-16.24,2.54-35.91,2.37-35.91,3.93c.31.46.62.69.94.69H214v.46c-.63,0-.94.08-.94.23q-26.24.75-26.23,1.38c-2.5.05-4.68.14-6.56.26v.2l-.54.08a2.18,2.18,0,0,0,0-.25l.55,0V27.4h-.56c0-.49,0-1-.06-1.56q0-1.9,2.19-4.16a5.29,5.29,0,0,0-.94-2.77q-5.31-1.78-5.31-6.69l.31-.46q-.78-3.69-2.81-3.69l-4.68,1.15h-.62c-1.72-.5-2.65-2.81-2.81-6.93q0-1.38-5-1.38c-3.33,0-6.35,3.77-9.37,11.31q-3.83,12.29-5.93,16.16c-1,2.46-1.89,4.79-2.74,7-1.29.33-1.94.59-1.94.79s.47.51,1.39.68a177.35,177.35,0,0,0-6.7,20.39Q129.35,66,129.35,68.1v2.77q0,1.91-5,9.23a56.06,56.06,0,0,1-3.43,9.46Q111.26,93,105.66,95.3c.42-1.54.9-3.21,1.44-5q6.56-15.81,6.56-19.39a6.07,6.07,0,0,0,1.87-4.39l6.25-13.85-.62-4.39q0-1.73,4.37-6.69,0-6.87,13.43-20.55v-.69h-.31l-.62.23q-2.73,3.93-4.68,3.93c-1.72,1.69-2.86,2.54-3.43,2.54l-.63-.23a14.22,14.22,0,0,1,3.12-4.16A17.3,17.3,0,0,1,139,14.77a12.45,12.45,0,0,1,2.81-5.54q-1.17,0-8.43,4.62H133v-.69q0-2.31,5.62-8.31.78-3.69,1.56-4.62V0h-.31q-1.56.75-6.56,6.69-12.64,10.22-15.93,15.23h-.62a8.14,8.14,0,0,1,.94-3q3.75-5.88,3.75-7.16c3.12-3.88,4.68-6,4.68-6.46V4.84h-.63c-1.87.92-4.06,3.16-6.56,6.69q-8.74,6.93-8.74,10.39a49.37,49.37,0,0,0-7.18,9q-5.78,2.84-8.43,10.39-7.8,7.27-7.81,8.54a28.87,28.87,0,0,0,.62,3.92A4.42,4.42,0,0,1,85.57,57a60.66,60.66,0,0,0-7.81,7.39,11.58,11.58,0,0,1-6.25,6.23q-2.19,0-2.19-1.38c-1-3.12-2.39-5-4.06-5.54a9.48,9.48,0,0,1,.94-4.62c-.21-4-.31-7.16-.31-9.46V41.54a54.85,54.85,0,0,0-.62-6.69q0-1.85,4.06-7.85a10.87,10.87,0,0,0-.62-2.08q-3.12-3.75-3.12-4.16V20.3a23.82,23.82,0,0,1,1.87-4.85c-1.35-3.23-2.92-4.85-4.68-4.85a7.51,7.51,0,0,0-4.37,1.85q-5,6.29-6.56,6.46-6.16,0-8.43,3.92a29.64,29.64,0,0,1-4.68,10.85,13.37,13.37,0,0,1-4.37,9.93q-2.11,7.22-10.62,24.93c.42,0,.62,1.15.62,3.46v.69q-5.31,7.84-5.31,9.46-6.24,11.49-6.25,12A209.46,209.46,0,0,0,2.19,117v.46l.62.69q1.17,0,5-6.92h.94q-3.12,7-6.25,16.39Q1.18,135.81,0,138c0,.31.21.46.63.46h.62a94.1,94.1,0,0,0,5.31-9.93H7.5c0,1.35-.83,3.65-2.5,6.92q-.46,7.39-1.25,7.39a54.1,54.1,0,0,0-2.5,12.24v.23c0,.31.21.46.62.46.57,0,1.2-1.69,1.87-5.08q5.94-13.44,7.18-14.31h.31v.23c0,1.92-.83,4.85-2.5,8.77q0,.41-3.12,14.08v10.16c0,.31.21.46.63.46s1-1.54,1.56-4.62a133.21,133.21,0,0,1,9.68-22.85,68.69,68.69,0,0,1,3.75-12.46L24,120.93q5.07-11.54,6.25-12.93h.31q-.32,4.62-.31,6.93v.23h.31a7.14,7.14,0,0,0,2.81-2.77,96.45,96.45,0,0,1,8.12-16.62Q44.82,83.94,50,79.38h.62l.63.23q0,11.25,4.37,14.54h2.5l1.56.23a10.05,10.05,0,0,0,7.18,3q2,0,5.62-2.77c2.13-4.42,4.84-7.43,8.12-9q5.55-7.39,8.74-7.39h.94V79.6q-3.43,7.91-3.43,9.23-6.24,11.72-6.25,12.93c-2,2.77-3.63,5.15-4.87,7.17l-.36.21v.38c-1.56,2.62-2.43,4.58-2.58,5.85l.31.92h.31c1.46-1.08,2.19-2,2.19-2.77h.94v.23c0,.73-.73,1.88-2.19,3.46q-3.12,8.94-5.93,12.93a56,56,0,0,0-5.31,15.46L60.26,156l.31.92h.62q2.19-1.22,2.19-2.31.54-6.93,6.87-14.31c.94-3.12,2.08-5.19,3.44-6.23H74q0,7.74-7.81,20.78,0,4.16-3.44,14.54a38.18,38.18,0,0,1,.31,3.93,33.88,33.88,0,0,0-.94,4.39v.46c0,1.15.31,1.77.94,1.85h.31q2.1-9.34,4.06-10.62,2.58-8,5.62-11.31L74.92,150q5-12.69,6.25-12.7h.31q0,6.52-5,18.47l-1.25,7.62.31.92h.94q0-.87,3.75-9,5.38-7.84,10.3-27.93,4.36-9.28,4.37-10.16h.62v.92q0,.75-3.12,13.16c.21,0,.42.38.62,1.15.83.69,1.25,1.15,1.25,1.38h.31l2.19-2.54-.62-.69q0-2.59,4.06-12,1.25-4,2.5-9.58a57.47,57.47,0,0,1,9.76-1.73h.31v.23a132.14,132.14,0,0,0-5.31,16.39l.31,1.15h.31q.85,0,3.44-3.92h.31v1.38q-2.19,5.49-5.62,17.54l.63,1.62h.94a64.34,64.34,0,0,1,5-9.23h.94q-6.24,22.22-6.87,25.85l.62,1.38c.36,0,1.09-.69,2.19-2.08q3.43-8.53,8.12-18,6.24-16.44,8.74-21.7h.94Q124,129.68,124,131.52a11,11,0,0,1,.31,1.38h.94c.42-.92.83-1.38,1.25-1.38a88.87,88.87,0,0,1,5.31-12.7q6.79-19.15,9.37-19.16a96.62,96.62,0,0,0,12.18-3.46h1.87l.62.23a15.28,15.28,0,0,1-.31,3,9.93,9.93,0,0,1,.62,2.08q0,2.59-.31,7.85c0,.77.1,1.15.31,1.15q1.56,25,2.19,25.85H159a11.92,11.92,0,0,0,.94-3.69v-4.39a14,14,0,0,1,.62-4.39,9.19,9.19,0,0,1-.31-2.31,6.88,6.88,0,0,1,.62-2.08h.62a17.26,17.26,0,0,1,.94,4.62,32.64,32.64,0,0,1-.94,4.85c0,1.38.52,6.39,1.56,15,0,.31.21.46.62.46H164c1,0,1.66-1.15,1.87-3.46v-4.16a8.06,8.06,0,0,1,.62-2.77h.62q1.24,3.69,1.25,16.39v1.38a9.58,9.58,0,0,1-.31,2.08q1.25,13.4,3.75,17.54h.63c.47,0,.78-.69.94-2.08A41.06,41.06,0,0,1,172.1,164a14.79,14.79,0,0,0,.94-3V149a12.44,12.44,0,0,1,.62-4.85h-.31a38.49,38.49,0,0,1,.62-6.46,11.33,11.33,0,0,1-.31-3v-.23H174l.62.23q1.88,16.16,4.06,16.16H179c.47,0,.78-.62.94-1.85q-.94-8.43-.94-9.69V138.2q0-1.5.62-9.23l.31-1.16a31.47,31.47,0,0,0-.94-4.62c0-.23.1-1.15.31-2.77A59.26,59.26,0,0,1,178,109.57c0-.15.21-1.08.62-2.77h.62c0,1.08.83,2.16,2.5,3.23h.62v-1.62a17.3,17.3,0,0,0-1.25-5.31l.31-2.08c0-.42-.1-2-.31-4.62.52-6.43,1.14-10.19,1.87-11.31q3.19-.87,5.78-1.68l.15.23v.23A42.54,42.54,0,0,1,186.73,97Q183,121.5,183,124c0,.31.21.46.62.46h.31l.62-.23A17,17,0,0,1,186.4,116a8.68,8.68,0,0,0,1.56-2.77h.63q-2.51,9.47-2.5,12.23l-.31.46c.21,0,.31.08.31.23V130a17.52,17.52,0,0,1-.94,5.31c.89,3.23,1.82,4.85,2.81,4.85h.63q2.5-3.34,7.81-21.47h.94v6.69l.63.69q2,0,2.81-6.93,4.07-6.87,4.06-11.31,3.75-10.74,3.75-15.93Q212,88,212,86.63V82.94q0-3.52,12.18-9h3.12q5.23,5.78,5.62,5.77,7.73,5.15,10.93,11.54,7.19,5.84,10.3,11.77,13.11,13.4,13.12,15.23a81.17,81.17,0,0,0,7.59,8.2c-3.33,1-8,2.68-14.15,5.13a2.43,2.43,0,0,0,2.5,2.08c2.22,0,7.94-.76,17.12-2.29,1.63,1.49,3,2.28,4.12,2.35h.31v-.92c-.67-.66-1.26-1.28-1.82-1.86l.26,0h.63a7.37,7.37,0,0,1,2.81.92h0q4.24,4.38,11.22,10.67c-.08.8-.18,1.7-.3,2.72q.71,4.62,2.19,4.62h.31l1.25-.69a27.81,27.81,0,0,0,1.21-2.51c2.25,2,4.64,4.05,7.23,6.26h.62v-.23q-1.93-1.8-7.07-7.93.56-1.39,1.2-3.15a44.77,44.77,0,0,0,5.55,4.15,36.37,36.37,0,0,0,5.62,5.54,6.38,6.38,0,0,0,.75,1.06,18.88,18.88,0,0,0-2.23,2.73,29.69,29.69,0,0,0-5.62.92l.31,1.16q-4.07,4.5-4.06,7.39-4.68,5.37-4.68,6.23v5.77q0,2-8.12,14.54a89.85,89.85,0,0,1-6.87,18.24q-.48,2.17-1.05,4.32-3.08.93-6.37,2.2h-.63l-.62-.23c-.21-3.38-.31-5.62-.31-6.69l.63-2.08v-.23q-1.56-1.5-1.56-2.31v-.23a4.46,4.46,0,0,1,.63-2.54,11,11,0,0,1-.31-1.38q0-2.65-.31-18.93a34.12,34.12,0,0,1,.94-6.92q-.39,0-.62-6.69,0-1.9,2.19-4.16a5.29,5.29,0,0,0-.94-2.77q-5.31-1.78-5.31-6.69l.31-.46q-.78-3.69-2.81-3.69L264.36,151h-.62c-1.72-.5-2.65-2.81-2.81-6.93q0-1.38-5-1.38c-3.33,0-6.35,3.77-9.37,11.31q-3.83,12.28-5.93,16.16-7.8,19.56-10,28.85-5.31,8.77-5.31,10.85v2.77q0,1.9-5,9.23a56.06,56.06,0,0,1-3.43,9.46q-9.66,3.42-15.26,5.74c.42-1.54.9-3.21,1.44-5q6.55-15.81,6.56-19.39a6.07,6.07,0,0,0,1.87-4.39l6.25-13.85-.62-4.39q0-1.72,4.37-6.69,0-6.87,13.43-20.55v-.69h-.31l-.62.23q-2.73,3.93-4.68,3.93c-1.72,1.69-2.86,2.54-3.43,2.54l-.63-.23a14.22,14.22,0,0,1,3.12-4.16,17.3,17.3,0,0,1,6.56-7.85,12.45,12.45,0,0,1,2.81-5.54q-1.17,0-8.43,4.62H229v-.69q0-2.31,5.62-8.31.78-3.69,1.56-4.62v-.23h-.31q-1.56.75-6.56,6.69-12.65,10.22-15.93,15.23h-.62a8.14,8.14,0,0,1,.94-3q3.75-5.88,3.75-7.16c3.12-3.88,4.68-6,4.68-6.46v-.46h-.63c-1.87.92-4.06,3.16-6.56,6.69q-8.75,6.93-8.74,10.39a49.37,49.37,0,0,0-7.18,9q-5.78,2.84-8.43,10.39-7.8,7.27-7.81,8.54a28.87,28.87,0,0,0,.62,3.92,4.42,4.42,0,0,1-1.87,3.23,60.66,60.66,0,0,0-7.81,7.39,11.58,11.58,0,0,1-6.25,6.23q-2.19,0-2.19-1.38c-1-3.12-2.39-5-4.06-5.54a9.48,9.48,0,0,1,.94-4.62c-.21-4-.31-7.16-.31-9.46v-8.08a54.85,54.85,0,0,0-.62-6.69q0-1.84,4.06-7.85a10.87,10.87,0,0,0-.62-2.08q-3.12-3.75-3.12-4.16V162a23.82,23.82,0,0,1,1.87-4.85c-1.35-3.23-2.92-4.85-4.68-4.85a7.51,7.51,0,0,0-4.37,1.85q-5,6.28-6.56,6.46-6.17,0-8.43,3.92a29.64,29.64,0,0,1-4.68,10.85,13.37,13.37,0,0,1-4.37,9.93q-2.11,7.22-10.62,24.93c.42,0,.62,1.15.62,3.46v.69q-5.31,7.84-5.31,9.46-6.24,11.49-6.25,12a209.46,209.46,0,0,0-10.62,22.85v.46l.62.69q1.17,0,5-6.92h.94q-3.12,7-6.25,16.39-1.32,8.19-2.5,10.39c0,.31.21.46.63.46h.62a94.1,94.1,0,0,0,5.31-9.93h.94c0,1.35-.83,3.65-2.5,6.92q-.47,7.4-1.25,7.39a54.1,54.1,0,0,0-2.5,12.24v.23c0,.31.21.46.62.46.57,0,1.2-1.69,1.87-5.08q5.94-13.44,7.18-14.31h.31v.23c0,1.92-.83,4.85-2.5,8.77q0,.4-3.12,14.08v10.16c0,.31.21.46.63.46s1-1.54,1.56-4.62a133.21,133.21,0,0,1,9.68-22.85,68.69,68.69,0,0,1,3.75-12.46l2.81-9.23q5.07-11.54,6.25-12.93h.31q-.31,4.62-.31,6.93v.23h.31a7.14,7.14,0,0,0,2.81-2.77,96.45,96.45,0,0,1,8.12-16.62q3.28-11.83,8.43-16.39h.62l.63.23q0,11.25,4.37,14.54h2.5l1.56.23a10.05,10.05,0,0,0,7.18,3q1.95,0,5.62-2.77c2.13-4.42,4.84-7.43,8.12-9q5.55-7.4,8.74-7.39h.94v1.38q-3.43,7.91-3.43,9.23-6.24,11.72-6.25,12.93c-2,2.77-3.63,5.15-4.87,7.18l-.36.21v.38c-1.56,2.62-2.43,4.58-2.58,5.85l.31.92h.31c1.46-1.08,2.19-2,2.19-2.77h.94v.23c0,.73-.73,1.88-2.19,3.46q-3.12,8.94-5.93,12.93a56,56,0,0,0-5.31,15.46l-2.81,10.39.31.92h.62q2.19-1.21,2.19-2.31.54-6.93,6.87-14.31c.94-3.12,2.08-5.19,3.44-6.23H170q0,7.74-7.81,20.78,0,4.16-3.44,14.54a38.18,38.18,0,0,1,.31,3.93,33.88,33.88,0,0,0-.94,4.39v.46c0,1.15.31,1.77.94,1.85h.31q2.1-9.35,4.06-10.62,2.58-8,5.62-11.31l1.87-8.08q5-12.69,6.25-12.7h.31q0,6.52-5,18.47l-1.25,7.62.31.92h.94q0-.87,3.75-9,5.39-7.85,10.3-27.93,4.37-9.28,4.37-10.16h.62v.92q0,.75-3.12,13.16c.21,0,.42.38.62,1.15.83.69,1.25,1.15,1.25,1.38h.31l2.19-2.54-.62-.69q0-2.6,4.06-12,1.25-4,2.5-9.58a57.47,57.47,0,0,1,9.76-1.73h.31v.23a132.14,132.14,0,0,0-5.31,16.39l.31,1.15h.31q.85,0,3.44-3.92h.31v1.38q-2.19,5.49-5.62,17.54l.63,1.62h.94a64.34,64.34,0,0,1,5-9.23h.94q-6.24,22.21-6.87,25.85l.62,1.38c.36,0,1.09-.69,2.19-2.08q3.43-8.53,8.12-18,6.24-16.44,8.74-21.7h.94Q220,271.43,220,273.27a11,11,0,0,1,.31,1.38h.94c.42-.92.83-1.38,1.25-1.38a88.87,88.87,0,0,1,5.31-12.7q6.8-19.15,9.37-19.16A96.62,96.62,0,0,0,249.37,238h1.87l.62.23a14.55,14.55,0,0,1-.31,3,9.93,9.93,0,0,1,.62,2.08q0,2.6-.31,7.85c0,.77.1,1.15.31,1.15q1.56,25,2.19,25.85H255a11.92,11.92,0,0,0,.94-3.69V270a14,14,0,0,1,.62-4.39,9.19,9.19,0,0,1-.31-2.31,6.88,6.88,0,0,1,.62-2.08h.62a17.26,17.26,0,0,1,.94,4.62,32.64,32.64,0,0,1-.94,4.85c0,1.38.52,6.39,1.56,15,0,.31.21.46.62.46H260c1,0,1.66-1.15,1.87-3.46v-4.16a8.06,8.06,0,0,1,.62-2.77h.62q1.24,3.69,1.25,16.39v1.38a9,9,0,0,1-.31,2.08q1.25,13.39,3.75,17.54h.63c.47,0,.78-.69.94-2.08a41.06,41.06,0,0,1-1.25-5.31,14.79,14.79,0,0,0,.94-3v-12a12.44,12.44,0,0,1,.62-4.85h-.31a38.49,38.49,0,0,1,.62-6.46,11.33,11.33,0,0,1-.31-3v-.23H270l.62.23q1.88,16.15,4.06,16.16h.31c.47,0,.78-.62.94-1.85,0-.14,0-.25,0-.38a17.6,17.6,0,0,0,1.21-5l7.49-22.85q2.26-15.93,4.68-15.93h.31v1.85q0,3.58-2.19,16.39a37.67,37.67,0,0,0,1.25,5.54h.31q2,0,5.62-16.62,6.24-16.5,6.25-18.24h.62c.42,0,.62.15.62.46,0,1.54-.1,3.38-.31,5.54a1.46,1.46,0,0,1,.31.69h.63l.94-.46q7.34-18.69,8.12-18.7h.94q1.32,0,6.56,10.39,2.15,4.24,13.28,20.78c-1.45.47-3,1-4.69,1.61,0,2.62,1.46,3.92,4.37,3.92h2.5c.47,0,.91,0,1.36,0q6.66,13.51,9.73,14.75l1.56-1.85q5.31,4.78,5.31,8.31,9.06,13.27,11.24,18.93,7.33,11.31,8.43,11.31c.83-.31,1.25-.54,1.25-.69v-.23a10,10,0,0,0-1.25-4.15q-5.94-6.29-5.93-8.77-5.31-11.94-5.31-12.7v-.23h.31A128.52,128.52,0,0,1,376,308.06q0,1.15,11.24,14.31,7.11,11.08,10,11.08v-.23q0-1.56-2.81-5.08c-1.2-3.62-2.34-5.85-3.44-6.69q-2.81-6.4-5-7.62a72.19,72.19,0,0,1-3.75-7.62q-4.29-4.5-8.74-15.93v-.46h.31a18.51,18.51,0,0,0,2.81,2.77q1.8,4.16,7.18,8.54c2.5,4.16,4.27,6.23,5.31,6.23.63-.58.94-1,.94-1.15q-.15-.87-5.31-8.31-2.5-7.68-3.75-9.69-7.5-8.77-7.49-12.24c-.85-1.29-1.61-2.5-2.29-3.62a25.28,25.28,0,0,1,3.07.39q4.68-2,4.68-9a54.67,54.67,0,0,0,5.93-5.08q38.71-2.07,46.22-2.77c3.95,0,7.29.08,10,.23Q453,255.9,453,255.2v-.46l-1.56-.23h-5.93a158.11,158.11,0,0,1-19.67-.92q0-.41,1.56-.69,12.89,0,25-.69c1.94,0,3.71,0,5.34,0l0,.12q.32,7.22,1.25,8.54,8.43,7,8.43,9.23.63,3.81,7.81,9.69,5.85,3.23,10.3,3.23,8,0,20.61-5.54a31.77,31.77,0,0,0,10-9.93q2-9.35,5-11.54,2.1-8.25,5-9.93a38.41,38.41,0,0,1,2-5q16-2,19.45-4.92h1.56c.42,0,.62.15.62.46v.23a2.27,2.27,0,0,1-.62,1.38q0,.75,1.56,2.31v1.85q-1.87,6.93-1.87,9.69,0,2-5.31,15.7c0,.38.1,1.54.31,3.46,0,1.62-.73,4.23-2.19,7.85a75.33,75.33,0,0,1-2.81,14.08,6.27,6.27,0,0,0,.94,2.77h1.25a9.75,9.75,0,0,0,4.68-4.39q0-2.54,3.75-2.54,7.8-6.29,7.81-9.46l6.25-4.85a19.8,19.8,0,0,1-.62-2.54q0-7.9,8.74-18.24.93-18,4.37-19.62,2.34-5.53,3.75-5.54c0,.15.31.31.94.46q1.71-1.15,11.87-3.46,9.28-2.13,20.3-10.85,9.38-3.69,18.11-13.62A15.08,15.08,0,0,0,637,196q9.67-7.56,9.68-17.77,0-2.94-2.81-12.46,0-4.11-5.79-7.32l.09-.34q2.18-5.59,3.8-9.85l1.19,4q2.58,7.33,5.31,10.85h.63l-4.37-11.54a62.43,62.43,0,0,0-.77-8.57l.51-1.37a14.16,14.16,0,0,0,3.37,6.49q0,1.62,10,23.54,2.58,7.34,3.75,9l.63-.23a5.46,5.46,0,0,0-.63-2.54q-5.31-11.49-5.31-15.93-7.19-23.25-7.81-27c-.36-.62-.69-1.29-1-2,.49-1.35.93-2.57,1.34-3.66q3.22,10,4.34,12.09a43.19,43.19,0,0,0,4.06,10.85c.42,0,.62-.15.62-.46v-.23c0-1.54-.21-2.31-.62-2.31q-2.53-12.77-4-15.82l.26-.28q3.2-15.64,5-17.08,3.68-12,5.93-12l1.25.23c.21,0,.31-.23.31-.69q12.4-3.52,13.12-4.85a107.65,107.65,0,0,0,10.62-2.54h1.56l1.56.69a3.24,3.24,0,0,1,1.25-.23,13.37,13.37,0,0,1-.31,2.54q0,3,.31,6.23L693.37,120q.32,5.31,1.56,5.31h.31a24.33,24.33,0,0,1,1.25-3.23h.62c0,1.08.1,2.77.31,5.08a21,21,0,0,1-.31,3.23,33.29,33.29,0,0,1,.31,5.08v.23a29.16,29.16,0,0,1-.62,3.93q1.1,10,2.19,12.23h.31q1,0,3.12-17.08l-.31-2.77c0-.92.1-2.54.31-4.85H703v11.08l2.5,17.08v3a8.43,8.43,0,0,0,1.25,4.39c.42,0,.62-.15.62-.46v-3.92a13.37,13.37,0,0,1,.31-2.54,20.79,20.79,0,0,1-.62-5.77,125.36,125.36,0,0,0,1.56-21.24V127.2h.62l.31,1.16v2.08q0,1,4.06,26.55a11,11,0,0,0-.31,1.38c.21,0,.31.23.31.69h.62l.62-.23q0-2.54.94-12.7a27.84,27.84,0,0,0-.31-3.46,29.54,29.54,0,0,0,.62-4.62q0-1.1-1.56-14.77a17.07,17.07,0,0,0,.62-3.23v-3.93h.62q1.24,7.16,2.81,9.93h.31c.42,0,.62-.15.62-.46v-1.15A94.31,94.31,0,0,0,715.81,97a11.33,11.33,0,0,1,.31-3,15.2,15.2,0,0,1-.31-3.23V89.12a1.44,1.44,0,0,1,.31-.92c3.59-1.31,5.78-2.69,6.56-4.16-.62-3.08-.94-4.85-.94-5.31a13.77,13.77,0,0,1,1.56-3.23v-.23ZM4.71,145H4.4L5,143.39h.62c-.21,1.08-.52,1.62-.94,1.62Zm4.68-34.39H8.45q0-1.26,2.19-4.85l.62.23Q11.26,107.16,9.39,110.62Zm54,41.32a1.23,1.23,0,0,1-.94,1.38V151.7l.31-1.15h.63v1.38Zm15.3,4.16-.62,1.62h-.62c0-.12.1-.73.31-1.85h.94v.23Zm110-119.64h1.56v.23q0,.81-8.12,1.62h-1.87l-.63-.23a.65.65,0,0,1-.26.14c.05-.68.14-1.44.26-2.25,2.13,0,3.91,0,5.3,0l3.75.46ZM181.22,30v.23c0,.26-.44.44-1.3.56,0-.24,0-.5-.06-.79ZM156.86,79.46q-5.38,3-7.49,3h-2.81V80.84q0-1.32,3.75-7.85,0-6.12,4.06-9.46H155c1,.27,1.67,2.65,1.87,7.16v8.77Zm25-5.31h-.63l-.62-.23c-.21-3.38-.31-5.62-.31-6.69l.63-2.08v-.23q-1.56-1.5-1.56-2.31v-.23a4.46,4.46,0,0,1,.63-2.54,11,11,0,0,1-.31-1.38q0-2.48-.27-16.82L190,41.09c1.92,0,3.7.08,5.31.23,1.25,0,1.87,1.31,1.87,3.92A22.72,22.72,0,0,1,195,54.47q0,7-4.68,14.77l-.48,2.25c-2.53.71-5.17,1.59-7.95,2.65ZM100.73,286.84h-.31l.62-1.62h.62c-.21,1.08-.52,1.62-.94,1.62Zm4.68-34.39h-.94q0-1.26,2.19-4.85l.62.23Q107.28,249,105.41,252.45Zm54,41.32a1.23,1.23,0,0,1-.94,1.38v-1.62l.31-1.15h.63v1.38Zm15.3,4.16-.62,1.62h-.62c0-.12.1-.73.31-1.85h.94v.23Zm78.14-76.64q-5.38,3-7.49,3h-2.81v-1.62q0-1.32,3.75-7.85,0-6.12,4.06-9.46H251c1,.27,1.67,2.65,1.87,7.16Zm26.23,5.77.72-.2q-1.26,5-2.25,7.78Q278.23,228.39,279.1,227.06Zm-1.64,9.64h.62v.69h-.62Zm.16,9.55c-.12-.38-.25-.76-.4-1.18l.31-2.08c0-.34-.07-1.41-.2-3.19a4.32,4.32,0,0,0,1.37.59v1.15a15.15,15.15,0,0,1-1.09,4.7Zm-2.89,2.51h.62a2.63,2.63,0,0,0,.59,1.57c-.51,1.12-1.1,2.35-1.76,3.65-.06-.86-.09-1.68-.09-2.45,0-.15.21-1.08.62-2.77Zm6.48,1.79a48,48,0,0,0-1.56,6.69,143.11,143.11,0,0,0-4.6,24.23v-1.32q0-1.5.62-9.23l.31-1.16a31.47,31.47,0,0,0-.94-4.62c0-.12,0-.45.09-1l4.2-9.48q1.1-4.62,1.56-4.62h.31v.48Zm2.5-6.93h-.62v-.69h.62ZM367.08,302h.31c.78.31,2.45,2.38,5,6.23v1.38l-.31.46q-5-5-5-7.39V302ZM393,328.1h.31c.42,0,.62.15.62.46v.23H393v-.69Zm-7.81-27c.78,0,1.51.92,2.19,2.77v.23h-.31a6.66,6.66,0,0,1-2.19-2.54ZM633,138a23.48,23.48,0,0,1-1-5.11q-2.51-14.14-3.43-15.47v-.92h.62q.63,2.43,3.75,10.39c.75,1.43,1.42,2.75,2.06,4C634.28,134.89,633.62,137.26,633,138ZM608.23,46.33c1.46-3.54,2.19-5.92,2.19-7.16V37.55a2.36,2.36,0,0,1,.94-1.62c1.87-.65,2.81-1.27,2.81-1.85q8-4.62,12.49-4.62,0-1.56,13.74-3a15.32,15.32,0,0,1,4.06.69v2.54q0,1.44-5.31,5.54-5.24,5.07-15.93,7.16-4.85,3.63-14.36,4.85h-.63v-.92ZM587.31,45a3.1,3.1,0,0,1-1.56,2.77q-5.7,14.6-9.37,21.93a48.11,48.11,0,0,1-5.62,12.93,99.93,99.93,0,0,0-6.65,14.07,123.88,123.88,0,0,0-6.77-10.6q-4.85-12.64-5-17.08,0-2.66,14.36-6.93A37.88,37.88,0,0,0,585.44,47.5a13.8,13.8,0,0,0,1.65-2.92,4.27,4.27,0,0,1,.22.38Zm-11.5,108.27c-3-10-4.73-16.05-5-18l-.15-.28c.37-1.21.75-2.33,1.14-3.35a90.56,90.56,0,0,0,3.69,10.09,42.86,42.86,0,0,0,4,10.76c-1.07.2-2.29.47-3.64.8Zm-10.36-.7c.4,1.14.81,2.21,1.22,3.22l-2.38.72c.34-1.55.68-3,1-4.42Zm-12.73,22H553V175c-1.21.6-2.3,1.17-3.29,1.71.21-.64.41-1.27.61-1.91a17.74,17.74,0,0,1,2.37-.27Zm-9.37,7.62v.23h.31l.23,0a9.51,9.51,0,0,1-1.72,2.33q-4.45,10.4-5.93,10.85h-.31v-.69q2.16-6.65,6.26-17a29.28,29.28,0,0,1,4.66-2.12c-.54,1.44-1.06,2.72-1.56,3.83-1.29,1-1.94,1.9-1.94,2.6ZM529.06,209.4h-.31v-.23a11.91,11.91,0,0,1,2.19-3.93l.63.23a4.57,4.57,0,0,1-2.5,3.93Zm-8.43-14.54h-.31c.6-2.53,1.2-4.77,1.81-6.76l3.33-1.73q-3.44,8.49-4.83,8.49Zm30.91-30.73q-2.62,1-4.54,1.85c.1-.23.19-.46.29-.7,1.06-.55,2.24-1.22,3.55-2.05H552C551.87,163.53,551.7,163.83,551.54,164.13Zm-4.45,5.34c0-.23.42-.46,1.25-.69l.62.23c0,.23-.42.46-1.25.69Zm-10.64,6.71a19.72,19.72,0,0,0-2,1l1.52-3.41c.74-.32,1.49-.63,2.27-.91C537.58,174.12,537,175.23,536.45,176.18Zm17.61-16.63h-.33l-.09.2c-1.56.74-3.28,1.63-5.16,2.69q3.48-8.3,7.75-18.14c.16-.51.31-1,.47-1.48h0c1-3.14,1.84-5.73,2.54-7.8l.26.55c-.74,4.14-1.27,8-1.55,11.64,0,.31.21.46.62.46l.63-.23c.71-2.92,1.37-5.62,2-8.14a37.39,37.39,0,0,1,1.43,3.75l1,3.48a99.58,99.58,0,0,0-.7,10.32l-1.19.37q-2.7,0-7.71,2.32Zm-3.3-43h.62q.63,2.43,3.75,10.39c1.13,2.16,2.13,4.12,3,5.9-.12.35-.24.72-.36,1.12l-2.4,4.62a25.72,25.72,0,0,1-1.19-5.64q-2.51-14.15-3.43-15.47Zm15.93,5.54.31-.46a10.05,10.05,0,0,1,1,1.55c-.24,1.21-.44,2.26-.6,3.13-.3-1.34-.56-2.74-.76-4.23ZM530.47,46.34c1.46-3.54,2.19-5.92,2.19-7.16V37.56a2.36,2.36,0,0,1,.94-1.62c1.87-.65,2.81-1.27,2.81-1.85q8-4.62,12.49-4.62,0-1.56,13.74-3a15.32,15.32,0,0,1,4.06.69V29.7q0,1.44-5.31,5.54-5.24,5.07-15.93,7.16Q540.62,46,531.1,47.25h-.63v-.92Zm-46.53-5.08,10.3-1.39h.94a1.42,1.42,0,0,1-.31.92q-10,5.53-10,6.93a4.35,4.35,0,0,0,2.19-.69q6.24-4.16,10.3-4.15h1.87a1.46,1.46,0,0,1-.31.69Q495.5,45.13,495.5,47v.23c.1.31.62.62,1.56.92a9.27,9.27,0,0,0,2.5-.46Q504.72,44,508.3,44h.31c.31,0,.62.31.94.92A3.1,3.1,0,0,1,508,47.72q-5.7,14.6-9.37,21.93A48.11,48.11,0,0,1,493,82.58a95.86,95.86,0,0,0-7.55,16.61c-.18-.67-.36-1.35-.56-2a11.33,11.33,0,0,1,.31-3,15.2,15.2,0,0,1-.31-3.23V89.33a1.44,1.44,0,0,1,.31-.92c3.59-1.31,5.78-2.69,6.56-4.16-.62-3.08-.94-4.85-.94-5.31a13.77,13.77,0,0,1,1.56-3.23v-.23q0-.57-7.18-1.62-3.75-3.47-5.62-3.46-1.56,0-3.12-26.32V44c2.06-.65,4.54-1.54,7.49-2.71ZM461,195.7a14.46,14.46,0,0,0,1.61-.35c-.12,1.57-.24,3.17-.36,4.81H461V195.7ZM460.37,184a9.19,9.19,0,0,0,.31-2.31c-.16-1.08-.47-1.62-.94-1.62h-.31v6a5.38,5.38,0,0,1-1.56,3.23c-.11,1.66-.22,3.25-.34,4.78-1.11,0-2.37-.08-3.8-.11q-7.11,0-13.43.46c-3.33-.15-5.52-.31-6.56-.46a16.14,16.14,0,0,1-3.75.46h-.31v-.69q9.38-1.38,9.37-2.77c-.21,0-.31-.08-.31-.23q-8.89,0-28.1.92H410l-5-.69v-4.15q0-5.78,1.87-7.62,13.28-.47,18.11-.46h.31a11.76,11.76,0,0,1,3.44-1.38,106.48,106.48,0,0,0,17.8-1.62q12.4-1.84,17.8-4.85v-.23l-.31-.46a45,45,0,0,1-5.93.46h-.31v-.23c0-.62,1.66-1.08,5-1.38l3-.57q-1.89,10.72-3.13,26a14.26,14.26,0,0,0-1.67-.24v-1.07a63.94,63.94,0,0,0-.62-9.23Zm9.68-12.7h-.31c-.2-1.3-.39-2.45-.57-3.47l2.6-.5c-.67,2.64-1.24,4-1.73,4Zm6.09-21A125.36,125.36,0,0,0,477.7,129v-1.62h.62l.31,1.16v2.08q0,.72,1.92,13c-.14,1.22-.26,2.43-.35,3.59,0,.31.21.46.62.46l.35-.13q.52,3.28,1.14,7.22c-.52-.61-1.17-1.47-2-2.61H479.1a9.8,9.8,0,0,0-2.65,2.53,26.06,26.06,0,0,1-.32-4.41Zm8.12-33.93h.43c-.12.56-.27,1.19-.43,1.9Zm-.16,39.4c.15-2.23.41-5.35.78-9.39a30,30,0,0,0-.31-3.46,29.54,29.54,0,0,0,.62-4.62c0-.37-.13-1.8-.39-4.28.88-3.42,1.67-6.35,2.37-8.81a11.17,11.17,0,0,0,.52,1.09H488c.42,0,.62-.15.62-.46v-1.15c0-1.38,0-2.74-.08-4.09.86-2.69,1.51-4.28,1.95-4.74h.94v1.85q-2.19,10.27-2.19,11.77a112.8,112.8,0,0,0-4,26.44l-1.14-.15ZM465.52,121l.31-.46c.42,0,.62.15.62.46v.23c0,.31-.21.46-.62.46h-.31ZM443.35,70.41q1.09-9.47,2.5-9.46l2.5-7.39c2.29-.42,3.44-1.12,3.44-2.08H454q5.16,0,5.93,20.31a28.79,28.79,0,0,0-1.25,6.69v.23l-.94.92q-5.46.93-16.86,3.69c-.36,0-.57-.15-.62-.46a29.65,29.65,0,0,1,3.12-12.46Zm-10,33.93,1.25.23c.21,0,.31-.23.31-.69Q447.33,100.36,448,99a107.65,107.65,0,0,0,10.62-2.54h1.56l1.56.69A3.24,3.24,0,0,1,463,97a14.25,14.25,0,0,1-.31,2.54q0,3,.31,6.23l-.63,14.54q.32,5.31,1.56,5.31h.31a24.33,24.33,0,0,1,1.25-3.23h.62c0,1.08.1,2.77.31,5.08a21,21,0,0,1-.31,3.23,33.29,33.29,0,0,1,.31,5.08V136a29.16,29.16,0,0,1-.62,3.93q1.1,10,2.19,12.23h.31q1,0,3.12-17.08l-.31-2.77c0-.92.1-2.54.31-4.85h.62V138.5l2.5,17.08v2.32a35.08,35.08,0,0,0-1.72,4.41c-.16.85-.32,1.63-.47,2.36l-3.75.39c-.17-.76-.32-1.38-.46-1.82h-1.25l-.31.92c-.08.36-.15.74-.22,1.11-7.37.68-13.69,1-18.9,1l-.63-.23.63-.69q13.42-1.74,13.43-3,0-.41-1.56-.69,0,.28-5.31.69c-.47,0-1.61-.08-3.44-.23q-11.94,1.38-26.23,2.31Q415,164,411,164H410a9.41,9.41,0,0,1-4.09-1.32c.37-1.16.77-2.58,1.2-4.31q8.75-22.5,8.74-23.55,4.14-11.65,5-12h.31V123a36,36,0,0,1-1.56,6q.63,5.88.94,6c.31,0,.94-.54,1.87-1.62q3.19-15.64,5-17.08,3.68-12,5.93-12ZM357.88,25.9v.23q0,.63-3.44,3.23l.63.23h3.43c.42,0,.62.15.62.46v.46a19.18,19.18,0,0,0-1.56,5.08v5.54q-4.06,18.59-5.93,24.7a60.53,60.53,0,0,1-2.19,14.08A53.34,53.34,0,0,1,346,95.15q-1.25,14.53-3.75,16.16a1.21,1.21,0,0,1,.16.16l-.71.19q-15.54.69-17.17,1.38h-1.25v-1.38q3.12-6.69,3.12-10.85L329.53,90V84.19L333.9,65Q338,52.75,338,43.33V42c0-.54,1-1.92,3.12-4.16q.39-6.47,1.56-6.46c3.23-1.19,4.89-2.19,5-3Q354,27,354.82,26l1.55-.31,1.49.19Zm-12.8,88.87A7.75,7.75,0,0,1,343.6,116v-.38l1.25-1.15.12-.07a1.14,1.14,0,0,1,.12.41Zm-17.49,8.77q-.66,0-8.4,1.36,5.42-2.52,18.78-5.17l1-.14q-10.45,2.67-11.36,4Zm3.44,2.31v.46h-.31c-.36,0-.57-.15-.62-.46H331Zm-15.54,2.42a2.3,2.3,0,0,1,.86-1.61c1,.14,2.21.25,3.75.34q2.65,0,8.43-.23V127l-.31.46q-7.5,1.62-8.43,3a56.32,56.32,0,0,0-6.71,2.09,12.82,12.82,0,0,1,2.42-4.29Zm81.73-60.59V70q0,2.37-6.25,7.85-3.29,7.78-8.74,10.85a17.13,17.13,0,0,1-4.06,5.54q-2.34,3.69-7.81,3.69h-.31l-.63-.23a7.18,7.18,0,0,1,.94-2.77l-.31-1.15c.05-1.54.26-2.31.62-2.31a54.09,54.09,0,0,1,3.12-12c-.21,0-.31-.08-.31-.23V77.61h.94q2.19-5.53,6.25-5.54,9.21-5.31,12.49-5.31H396C396.8,67.15,397.22,67.45,397.22,67.68ZM391.6,27.05a4,4,0,0,1,3.12,4.15v1.85A7.91,7.91,0,0,1,393.47,37q-6.95,6.93-10,8.08C379,50.28,376,52.9,374.42,52.9h-.31V51.75c.31-.46.63-.69.94-.69a1.46,1.46,0,0,0-.31-.69q2.5-6.75,2.5-7.85V37.9q0-7.62,2.81-7.62l-.31-1.62c0-1.23,1.14-1.85,3.44-1.85h1.56q3.28,0,6.87.23ZM348,13.78c.42-.28.78-.53,1.09-.76l4.51.43c-2.09.29-3.65.55-4.67.79H348v-.46ZM234.61,48.46c-2.65,2.31-4.74,3.46-6.25,3.46h-.94c-1.25,0-1.87-.38-1.87-1.15a24.13,24.13,0,0,1,1.25-6.23q1.09-10.4,8.74-10.39,1.88,0,7.49.23,15.37-1.85,18.42-3.46c3.95.16,5.93.69,5.93,1.62V33q-1.72,2.07-8.43,4.85-6.87,4.62-8.43,4.62a83.42,83.42,0,0,1-15.93,6Zm29,29.32Q253,62.72,253,61.39v-.46c0-.35,1-.73,3.12-1.15a126.74,126.74,0,0,0,29-10.85q22.32-5.72,24-8.31a11.05,11.05,0,0,0,2.15-.78,8.45,8.45,0,0,1,1.6,3.49q0,4-6.25,19.62v.23a21.35,21.35,0,0,1,2.19,3.69v.23q-6.24,24.12-8.12,29.08-.58,5.63-4.2,16.74c-1.72-1.36-3.54-2.76-5.48-4.22q-11.4-9.06-14.68-16.85c-4-3.27-5.93-5.12-5.93-5.54q-6.87-6.53-6.87-8.54Zm7.49,39v-.69h.63q4.49,4.09,6.89,6.47a3.15,3.15,0,0,0-1.05,1.69c-1-.84-1.46-1.48-1.46-1.93q-5-5-5-5.54Zm21.23,14.53,1.25.18c0,.52,0,1,.08,1.48l-1.32-1.65h0Zm5.44,6.74.5-.1v.71Zm16.11,5.5.31-.46c.63.23.94.46.94.69V144h-.62c-.36,0-.57-.15-.62-.46Zm1.25.92q1.88,0,4.68,3.69v.23h-.62c-.57-.19-1.93-1.5-4.06-3.93Zm4.14,43.72v-.92a11.27,11.27,0,0,1,1.25-4.39,13.28,13.28,0,0,1-.31-2.54v-.69q0-.93,5-9.23c-.31,0-.52-.92-.63-2.77v-.46c1.37-2.15,2.35-3.75,3-4.83a19.74,19.74,0,0,0,4.14,2.89h.62v-.46c0-1-1.34-2.33-4-4.13a1.33,1.33,0,0,1-.27-.63l-.33-.26a46.89,46.89,0,0,0-3.36-4.58,4,4,0,0,1-.06-.69v-.69A55,55,0,0,0,334.54,162c3.89,3.35,7.14,6,9.79,7.89a11.1,11.1,0,0,0-1,1q0,2.07-9.68,7.16-10.23,9.69-13.74,10.16h-.62Zm61.36,3.46c0,.15-2.29.54-6.87,1.15q-4.07,0-4.06,4.15-7.26,1.44-10.62,4.39v.23q0,3.22,9.37,4.15a36.83,36.83,0,0,1,4.06-.23h.62c1.87,0,2.81.77,2.81,2.31v.46a79.08,79.08,0,0,0-4.06,9.23l-3.12,8.31c0,.16.21,1.92.62,5.31v.46c-1.46,3.43-2.19,5.81-2.19,7.16v3.69c-.42,2.16-1.46,3.23-3.12,3.23-.49.14-2.08.4-4.75.79q-7.94-9-13.52-16.26a43.42,43.42,0,0,1-7.18-8.08q-7.57-6.23-8.43-11.08l.31-1.62q0-3.63,5.62-6.23,3.82-5.72,5.93-6.69,4.46-4.73,7.49-6a82.59,82.59,0,0,1,9.68-8.77c0-.27-.21-.42-.62-.46a30.61,30.61,0,0,0-4.37,1.39v-.23q0-1.21,5.31-6.46l2.81-1.92q5.19,1,22.64,3.77-2.1,13.84-4.37,13.85ZM386,164.88h-1.25l-10-.49c0-.07.12-.14.16-.2q12.5-8.59,12.49-10.39h-.62q-5.17,0-19.15,10.24l-1.23-.06a13.25,13.25,0,0,1,1-1.63q5.92-4.9,5.93-5.31v-.23a7.82,7.82,0,0,0-5,2.08,79.84,79.84,0,0,0-18.55,12.76c-.11-.27-.26-.56-.42-.87l1.17-2.43c0-.15-.31-.31-.94-.46a7.8,7.8,0,0,0-2,.26,60.45,60.45,0,0,0-4.63-5.2Q327.32,150,327.33,149.1q-8.19-6.53-8.43-8.77l-6.29-6.5.06-.17a72.3,72.3,0,0,1,14.27-2q2.34,0,8.43-2.77a35.3,35.3,0,0,1,8.74-3h4.37l.62.23a113.68,113.68,0,0,1-11.55,4.85,34.89,34.89,0,0,0-12.18,3.23v.23c0,.31.21.46.62.46a20.29,20.29,0,0,0,4.68-.69v-.23H328.8v-.46a10.54,10.54,0,0,1,5.93-1.38v.46l-.31.46q21-5.77,21.86-5.77a95,95,0,0,1,9.68-1.62q4.29-2.78,6.25-2.77,7.26-3.46,10.93-4.16,5-4.62,5.62-4.62l8.84-6.84q7.59-2.78,13.88-4.53h.31v.69q-8.19,3.47-8.74,4.85v.23h.31a78.56,78.56,0,0,1,9.06-2.31v.23l-6.25,14.31c-.42,3.5-1.25,5.89-2.5,7.15a9,9,0,0,1,.31,2.08v.23c-.88,5.39-1.72,8.08-2.5,8.08q-.93,6.47-2.19,11.77v2.54c0,.31.21.46.62.46h.31q4-14.53,7.18-14.54,2.34-5.31,3.12-5.54h.31q-4.06,11.15-4.06,15.7-2.17,8.67-3.08,12.71l-.59-.38h-.94a24.15,24.15,0,0,1-4.68,1.85,24.07,24.07,0,0,1-6.25-1.15q-1.49,0-5.31,3.23Zm39.66,75.48h-2.5l-.63-.23a12.12,12.12,0,0,0-3.12.69q-6.4,0-23.73,2.54a17.53,17.53,0,0,0-3.43-.46V242a6.35,6.35,0,0,0,1.25-1.85,7.74,7.74,0,0,1-.94-3.46,19.9,19.9,0,0,0,1.56-6.23q0-1.56,3.43-8.77c-.21-1.12-.31-1.73-.31-1.85a41.83,41.83,0,0,0,1.87-6.69v-3.92q0-2.31,9.37-3.23,9.38-3,14.36-3a31.13,31.13,0,0,0,7.49-1.38h10.3a22,22,0,0,0,4.68-.69v-.23c0-.27-.21-.42-.62-.46q-7.26,0-13.74-.23c-2,.16-4,.23-5.93.23v-.46q3.12,0,12.18-1.85,13.65-.93,20.18-1.71-1.16,14.24-2.62,20.11.31,5.08.31,6.69a44.94,44.94,0,0,0-1.56,9.69,42.52,42.52,0,0,0,.44,5.86l-4,0q-3.51,0-24.36,1.85Zm11.87,3.69h-.31v-.23c0-.27,1-.58,3.12-.92a79.73,79.73,0,0,0,11.24-1.15c.92-.2,1.88-.38,2.85-.55.12.6.25,1.21.39,1.81q-11.4.48-17.29,1.05Zm47.85,18.87H483.8c-2.86-1.38-4.39-4.72-4.64-10l6.43.32h7.34c-.63,1.46-1.18,2.83-1.65,4.1a10.77,10.77,0,0,1-5.93,5.54Zm19.36-39a40.09,40.09,0,0,0-1.56,6.46q-3.75,8-3.75,9.69c-2.22,4.14-4.06,7.84-5.55,11.12q-8.43-1.49-14.73-2.17a14.21,14.21,0,0,1,.27-2.28l4.32-.15H484l2.19-.23v-.69q-3.14-.63-6.33-1.11c.14-.55.29-1.11.47-1.72q1.25-16.8,4.37-24.47l-1.56-4.16q2.19-12.81,2.19-14.08c2.08-4.89,3.12-7.73,3.12-8.54v-3.23q5-4.38,5-6v-.92c-2.08-2.46-3.12-3.85-3.12-4.15A30.46,30.46,0,0,0,495,172.2c-.36-2-.89-3.23-1.56-3.69-3-1.85-4.73-3.39-5.35-4.62,1.22-.31,1.84-.52,1.84-.63V163c-.31-.46-.62-.69-.94-.69h-.31c-.27,0-.56,0-.86,0v-.31a48.64,48.64,0,0,1,1.87-4.62v-.69c0-.16-1.05-.39-3.11-.69a84.3,84.3,0,0,1,4.83-16,64.28,64.28,0,0,1,3.43-10.62q1.56-7.22,4.37-10.39h.62v1.62a5.32,5.32,0,0,1-.94,2.54c.16,1.23.47,1.85.94,1.85q2.58,0,4.06-9.93A163.82,163.82,0,0,0,513,89q5.93-7.27,5.93-7.85,0-4.56,9.68-6.46h.94c0,.89.63,3.35,1.87,7.39q7.19,15.7,17.49,40.17c.83,6.93,2.08,11.23,3.75,12.93.73,2.08,1.37,3.7,1.93,4.93q-8.08,15.66-13.33,26.56c-.61,1.3-1.19,2.5-1.74,3.62-.85.35-1.71.74-2.56,1.17a26.87,26.87,0,0,0,1.8-4.79V166h-.31q-.78,2.31-1.56,2.31h-.31Q538,163,538.76,163h.31v2.31h.31a18.28,18.28,0,0,0,1.56-3.46,80,80,0,0,0,2.5-9.46v-.23l-.31-.46q-.32,0-1.56,1.38a72,72,0,0,1-5.31,12.47q-1.25,6.58-4.37,9h0c-1.38,1-2.76,2-4.13,3.23v.46a2.92,2.92,0,0,0,2.5-1.15c.32-.24.66-.47,1-.7a36.12,36.12,0,0,1-1.53,3.54c-3.17,1.3-4.78,2.06-4.78,2.24-.27.12-.56.27-.84.41.2-.47.4-.92.61-1.33V181c0-.27-.21-.42-.62-.46a12,12,0,0,0-3.36,3.85,100.42,100.42,0,0,0-9.53,6.54q0,.47-7.81,8.08a1.33,1.33,0,0,0,1.25,1.39c.68,0,1.82-.85,3.44-2.54,0-1.3,3.21-3.75,9.6-7.34-.36.86-.72,1.76-1.09,2.73q-.86,7.78-4.06,12.23-1.09,5.66-7.81,18.47Zm2.42-26.78v.69q-1.09,1.38-1.56,1.38h-.94c0-.61.73-1.31,2.19-2.08h.31Zm23.13,40.16c.25-.85.58-1.86,1-3,.35,0,.74,0,1.18,0h.31a33.15,33.15,0,0,1,9.06-2.54h1.25q0,3.11-12.78,5.54Zm40.26-63.24a21.05,21.05,0,0,1-1.25,6.23q-5.94,12.41-5.93,14.08a37.66,37.66,0,0,0-4.68,17.54v.23l-1.25,2.31q0,2.88-7.18,5.31c0,.23.1,1.31.31,3.23-1.93,2.92-4.22,4.39-6.87,4.39q-2.22,0-11.54,4.47,2.65-7.17,8.19-20.17l-.62-.23h-.31a6,6,0,0,0-2.5,2.54H536v-.46q3.75-6.87,7.81-19.85,2.67-7,4.9-13.66a84,84,0,0,1,19.69-7.58h1.25c.62.12.94.58.94,1.38V174Zm-2.22-18.83L567,151.8c-.07-1.89-.17-3.52-.3-4.94.28-.92.56-1.79.84-2.62a13.23,13.23,0,0,0,2.58,4.09,32.2,32.2,0,0,0,2.11,5.78c-1.23.33-2.54.7-3.94,1.11Zm54.05,21.6q0,5.15-9.37,14.31-2.26,5.09-11.87,9.7-6.09,5-16.86,8.54H583a.55.55,0,0,1-.63-.46v-1.39q0-2.78,4.37-15.93a4.08,4.08,0,0,1-.94-2.08l4.06-12.7c0-2.88,1.14-4.89,3.44-6a9.05,9.05,0,0,0,6.56-2.77q0-2.31,11.55-4.39A18.55,18.55,0,0,1,622,166.88q.32,5.88.31,7.85v2.08Zm15.54-28.2c-.88,3.53-1.61,6.47-2.18,8.85-1.11-.49-2.33-1-3.68-1.43q-8-5.78-25-5.77-.93,0-12.18,2.08a17.56,17.56,0,0,1-4.68-.69,3.24,3.24,0,0,1-1.25.23h-1.87a6.67,6.67,0,0,1-2.5-.69c-.62.35-.94.58-.94.69a22.3,22.3,0,0,0-3.6.4.43.43,0,0,0,.09-.26v-.23c0-1.54-.21-2.31-.62-2.31q-2.58-13-4.06-15.93a24.75,24.75,0,0,0-1.59-8.6A17.23,17.23,0,0,1,577,119h.62v1.62a5.32,5.32,0,0,1-.94,2.54c.16,1.23.47,1.85.94,1.85q2.58,0,4.06-9.93A163.82,163.82,0,0,0,590.76,89q5.93-7.27,5.93-7.85,0-4.56,9.68-6.46h.94c0,.89.63,3.35,1.87,7.39q4.26,9.32,9.63,21.73l-1.82.72q-16.4,8.13-20.61,9.93v.46H597q2.34,0,13.43-5.54,5.27-1.86,9.37-3.27l1.32,3.07-2.57,1.35v.23h.94l2-.78c1.66,3.89,3.4,8,5.21,12.27.83,6.93,2.08,11.23,3.75,12.93.72,2,1.35,3.66,1.9,4.88-.56,3.59-1.19,6.92-1.9,9.95v2.54c0,.31.21.46.62.46h.31q4-14.53,7.18-14.54l.05-.1c.33.74.64,1.45.89,2.08a32,32,0,0,0-1.56,8.18ZM652,122.77h.31V123a13,13,0,0,1-.5,2.39c-.17-.5-.36-1-.57-1.49.34-.68.59-1.06.76-1.12Zm37.78-44.32v.23l-.94.92q-5.46.93-16.86,3.69c-.36,0-.57-.15-.62-.46a29.65,29.65,0,0,1,3.12-12.46q1.1-9.47,2.5-9.46l2.5-7.39c2.29-.42,3.44-1.12,3.44-2.08h2.19q5.16,0,5.93,20.31a28.79,28.79,0,0,0-1.25,6.69Zm7.81,42.7c0,.31-.21.46-.62.46h-.31v-.69l.31-.46c.42,0,.62.15.62.46Zm20.3-1.62h.31c.42,0,.62.15.62.46s-.21.46-.62.46h-.31Z"/></g></g></svg>