<svg width="566.4" height="100" viewBox="0 0 566.4 100" xmlns="http://www.w3.org/2000/svg"><g id="svgGroup" stroke-linecap="round" fill-rule="evenodd" font-size="9pt" stroke="#000" stroke-width="0.25mm" fill="black" style="stroke:#000;stroke-width:0.25mm;fill:black"><path d="M 0 71.7 L 1.1 63 A 10.241 10.241 0 0 0 2.192 63.818 Q 3.419 64.629 5.352 65.556 A 53.576 53.576 0 0 0 6.75 66.2 A 19.954 19.954 0 0 0 11.339 67.578 Q 13.394 67.947 15.728 67.993 A 33.98 33.98 0 0 0 16.4 68 A 22.679 22.679 0 0 0 19.088 67.851 Q 20.415 67.693 21.506 67.364 A 8.753 8.753 0 0 0 23.675 66.4 A 5.772 5.772 0 0 0 25.214 65.017 Q 26.138 63.794 26.196 62.125 A 6.491 6.491 0 0 0 26.2 61.9 A 6.498 6.498 0 0 0 25.933 59.993 A 5.13 5.13 0 0 0 24.575 57.775 A 11.807 11.807 0 0 0 21.37 55.58 A 13.78 13.78 0 0 0 20.675 55.275 A 43.764 43.764 0 0 0 18.469 54.444 A 33.965 33.965 0 0 0 16.4 53.8 A 67.018 67.018 0 0 1 11.358 52.222 A 77.787 77.787 0 0 1 9.475 51.525 Q 5.9 50.15 3.45 47.4 Q 1 44.65 1 39.7 Q 1 35.95 2.8 32.575 A 12.099 12.099 0 0 1 6.131 28.694 A 16.508 16.508 0 0 1 8.65 27.1 A 16.596 16.596 0 0 1 12.378 25.74 Q 14.185 25.301 16.322 25.122 A 37.003 37.003 0 0 1 19.4 25 Q 24.3 25 27.375 26.025 Q 30.45 27.05 32.7 28.2 L 31.6 36.4 A 19.834 19.834 0 0 0 28.002 34.02 A 23.475 23.475 0 0 0 26.6 33.35 A 13.821 13.821 0 0 0 23.669 32.458 Q 22.283 32.189 20.687 32.122 A 25.876 25.876 0 0 0 19.6 32.1 A 18.383 18.383 0 0 0 16.781 32.303 Q 15.268 32.539 14.022 33.045 A 9.475 9.475 0 0 0 12.75 33.675 A 5.146 5.146 0 0 0 10.209 37.376 A 7.663 7.663 0 0 0 10.1 38.7 Q 10.1 42.141 12.91 43.592 A 6.486 6.486 0 0 0 12.925 43.6 A 26.602 26.602 0 0 0 14.745 44.439 Q 16.753 45.284 19.646 46.219 A 113.016 113.016 0 0 0 21.5 46.8 A 30.38 30.38 0 0 1 22.931 47.238 Q 23.718 47.5 24.593 47.829 A 58.083 58.083 0 0 1 25.675 48.25 A 21.816 21.816 0 0 1 29.594 50.316 A 24.743 24.743 0 0 1 30.3 50.8 A 12.738 12.738 0 0 1 33.717 54.462 A 14.874 14.874 0 0 1 34.025 54.975 A 10.522 10.522 0 0 1 35.131 57.869 Q 35.5 59.475 35.5 61.4 A 14.821 14.821 0 0 1 34.767 65.928 A 18.557 18.557 0 0 1 33.95 68.025 A 11.096 11.096 0 0 1 31.322 71.568 Q 30.059 72.73 28.35 73.7 Q 24.3 76 16.8 76 A 44.998 44.998 0 0 1 12.327 75.791 Q 10.135 75.572 8.274 75.122 A 21.26 21.26 0 0 1 6.025 74.45 Q 1.75 72.9 0 71.7 Z" id="0" vector-effect="non-scaling-stroke"/><path d="M 86 50.5 L 50.5 50.5 Q 50.945 55.158 52.306 58.409 A 15.017 15.017 0 0 0 53.75 61.1 A 15.07 15.07 0 0 0 57.102 64.663 A 13.429 13.429 0 0 0 60.3 66.45 Q 64.25 68 68.9 68 A 36.67 36.67 0 0 0 74.056 67.622 A 42.92 42.92 0 0 0 76 67.3 Q 79.7 66.6 83 65.1 L 84.2 72.2 A 49.469 49.469 0 0 1 81.887 73.141 Q 79.813 73.928 77.25 74.725 Q 73.274 75.961 68.123 75.999 A 44.428 44.428 0 0 1 67.8 76 A 34.961 34.961 0 0 1 61.226 75.414 Q 57.207 74.645 53.972 72.865 A 21.425 21.425 0 0 1 53.25 72.45 Q 47.35 68.9 44.325 63.025 A 27.601 27.601 0 0 1 41.312 50.977 A 32.36 32.36 0 0 1 41.3 50.1 A 28.908 28.908 0 0 1 42.635 41.225 A 26.431 26.431 0 0 1 44.125 37.55 Q 46.95 31.85 52.325 28.425 A 21.468 21.468 0 0 1 60.125 25.442 A 29.037 29.037 0 0 1 65.3 25 A 26.238 26.238 0 0 1 71.407 25.684 A 21.527 21.527 0 0 1 76.175 27.425 Q 80.95 29.85 83.675 34.475 A 19.127 19.127 0 0 1 85.933 40.573 A 26.759 26.759 0 0 1 86.4 45.7 A 33.234 33.234 0 0 1 86.381 46.794 A 41.99 41.99 0 0 1 86.325 47.975 A 19.424 19.424 0 0 1 86.074 50.096 A 21.813 21.813 0 0 1 86 50.5 Z M 51.3 44.3 L 77.1 44.3 Q 77.1 40.85 75.8 38.3 Q 74.5 35.75 71.85 34.375 Q 69.667 33.242 66.499 33.043 A 22.269 22.269 0 0 0 65.1 33 A 19.39 19.39 0 0 0 61.501 33.313 Q 58.054 33.965 55.875 35.975 A 14.18 14.18 0 0 0 52.84 40.073 Q 51.891 41.959 51.3 44.3 Z" id="1" vector-effect="non-scaling-stroke"/><path d="M 105.1 75 L 95.5 75 L 95.5 26 L 102.9 26 L 104 34.1 A 46.356 46.356 0 0 1 106.653 31.071 Q 107.963 29.709 109.23 28.663 A 21.199 21.199 0 0 1 111.175 27.225 Q 114.6 25 118.5 25 A 9.091 9.091 0 0 1 119.909 25.105 A 7.432 7.432 0 0 1 120.8 25.3 L 119.9 35.2 A 10.905 10.905 0 0 0 118.883 35.017 A 12.472 12.472 0 0 0 118.525 34.975 Q 117.8 34.9 116.9 34.9 A 15.29 15.29 0 0 0 110.606 36.197 A 14.902 14.902 0 0 0 109.725 36.625 A 18.762 18.762 0 0 0 107.783 37.792 Q 106.007 39.023 105.1 40.4 L 105.1 75 Z" id="2" vector-effect="non-scaling-stroke"/><path d="M 169.2 25.8 L 168.1 31.8 L 166.95 31.8 L 165.8 31.8 Q 165.315 31.8 163.608 31.941 A 151.157 151.157 0 0 0 163.5 31.95 A 20.911 20.911 0 0 0 161.57 32.198 A 16.654 16.654 0 0 0 160.2 32.5 Q 162.25 34.9 163.375 37.875 Q 164.5 40.85 164.5 44.1 A 22.184 22.184 0 0 1 163.733 50.028 A 19.04 19.04 0 0 1 162.075 54.125 Q 159.65 58.55 155.1 61.125 A 19.353 19.353 0 0 1 149.062 63.275 A 26.553 26.553 0 0 1 144.2 63.7 A 26.093 26.093 0 0 1 141.374 63.551 A 23.27 23.27 0 0 1 140.75 63.475 A 20.811 20.811 0 0 1 137.835 62.869 A 19.076 19.076 0 0 1 137.6 62.8 A 5.05 5.05 0 0 0 136.621 63.228 Q 135.3 63.998 135.3 65.4 Q 135.3 66.5 136.6 67.325 A 5.666 5.666 0 0 0 137.541 67.793 Q 138.784 68.287 140.8 68.6 L 153.9 70.7 A 39.966 39.966 0 0 1 158.832 71.777 Q 161.277 72.487 163.244 73.474 A 17.832 17.832 0 0 1 166.175 75.3 Q 170.5 78.65 170.5 84.8 A 14.389 14.389 0 0 1 169.951 88.864 A 11.469 11.469 0 0 1 167.525 93.275 A 15.282 15.282 0 0 1 163.531 96.458 Q 161.57 97.566 159.1 98.325 A 35.701 35.701 0 0 1 153.573 99.527 Q 150.205 100 146.3 100 A 46.614 46.614 0 0 1 140.05 99.6 A 34.791 34.791 0 0 1 134.325 98.35 A 23.264 23.264 0 0 1 130.41 96.745 Q 128.064 95.508 126.369 93.807 A 14.51 14.51 0 0 1 126.025 93.45 A 11.201 11.201 0 0 1 123.02 86.177 A 14.653 14.653 0 0 1 123 85.4 A 11.744 11.744 0 0 1 123.587 81.628 A 10.231 10.231 0 0 1 125.275 78.525 A 14.648 14.648 0 0 1 128.877 75.303 A 19.241 19.241 0 0 1 131.5 73.9 A 12.969 12.969 0 0 1 129.806 72.916 Q 128.948 72.321 128.319 71.639 A 7.235 7.235 0 0 1 127.925 71.175 A 5.741 5.741 0 0 1 126.88 69.107 A 5.487 5.487 0 0 1 126.7 67.7 Q 126.7 65.45 128.075 63.625 A 7.303 7.303 0 0 1 129.582 62.16 Q 130.772 61.28 132.5 60.6 Q 128.4 58.05 126.2 53.725 A 20.438 20.438 0 0 1 124.054 45.732 A 24.497 24.497 0 0 1 124 44.1 A 20.543 20.543 0 0 1 124.985 37.666 A 18.595 18.595 0 0 1 126.4 34.425 Q 128.8 30.1 133.325 27.55 A 19.259 19.259 0 0 1 139.254 25.437 A 26.656 26.656 0 0 1 144.2 25 A 20.639 20.639 0 0 1 149.671 25.712 A 19.105 19.105 0 0 1 150.625 26 Q 153.65 27 156.2 28.8 Q 158.415 27.52 161.429 26.677 A 31.033 31.033 0 0 1 161.525 26.65 A 23 23 0 0 1 165.214 25.963 A 30.023 30.023 0 0 1 168.4 25.8 L 168.825 25.8 L 169.2 25.8 Z M 144.2 56.5 A 15.17 15.17 0 0 0 147.65 56.131 Q 150.265 55.521 152.084 53.899 A 9.408 9.408 0 0 0 152.9 53.075 A 11.861 11.861 0 0 0 155.607 47.408 A 16.784 16.784 0 0 0 155.9 44.2 A 15.057 15.057 0 0 0 155.405 40.244 A 11.434 11.434 0 0 0 152.9 35.575 A 9.654 9.654 0 0 0 147.948 32.636 Q 146.248 32.2 144.2 32.2 Q 138.5 32.2 135.55 35.575 Q 132.6 38.95 132.6 44.2 A 16.429 16.429 0 0 0 133.048 48.14 A 11.748 11.748 0 0 0 135.55 53.075 A 9.477 9.477 0 0 0 140.569 56.086 Q 142.218 56.5 144.2 56.5 Z M 152.4 78.4 L 138.45 76.05 Q 135.7 77.25 133.65 79.275 Q 131.6 81.3 131.6 84 A 6.443 6.443 0 0 0 132.271 86.982 Q 132.983 88.371 134.451 89.348 A 9.519 9.519 0 0 0 135.825 90.1 A 18.671 18.671 0 0 0 139.391 91.258 Q 142.694 92 147.1 92 Q 154 92 157.7 90.225 A 8.361 8.361 0 0 0 159.489 89.094 A 5.127 5.127 0 0 0 161.4 85 A 4.989 4.989 0 0 0 160.889 82.721 Q 160.392 81.735 159.409 80.988 A 6.606 6.606 0 0 0 159.075 80.75 A 11.497 11.497 0 0 0 157.142 79.733 Q 156.165 79.323 154.979 78.989 A 28.825 28.825 0 0 0 152.4 78.4 Z" id="3" vector-effect="non-scaling-stroke"/><path d="M 187.2 75 L 178.2 75 L 178.2 26 L 187.2 26 L 187.2 75 Z M 187.2 15 L 178.2 15 L 178.2 5 L 187.2 5 L 187.2 15 Z" id="4" vector-effect="non-scaling-stroke"/><path d="M 220.8 76 Q 213.1 76 207.675 72.575 Q 202.25 69.15 199.375 63.375 Q 196.5 57.6 196.5 50.5 A 30.305 30.305 0 0 1 197.568 42.339 A 26.5 26.5 0 0 1 199.375 37.625 Q 202.25 31.85 207.675 28.425 A 21.715 21.715 0 0 1 215.345 25.482 A 29.568 29.568 0 0 1 220.8 25 A 28.566 28.566 0 0 1 227.177 25.679 A 21.561 21.561 0 0 1 233.9 28.425 Q 239.35 31.85 242.225 37.625 Q 245.1 43.4 245.1 50.5 A 30.305 30.305 0 0 1 244.032 58.661 A 26.5 26.5 0 0 1 242.225 63.375 Q 239.35 69.15 233.9 72.575 Q 228.45 76 220.8 76 Z M 220.8 68 A 18.375 18.375 0 0 0 225.411 67.455 A 12.475 12.475 0 0 0 232 63.375 A 15.42 15.42 0 0 0 234.955 57.743 Q 235.9 54.561 235.9 50.5 A 28.201 28.201 0 0 0 235.48 45.476 Q 234.62 40.732 232 37.625 A 12.637 12.637 0 0 0 224.637 33.366 A 19.095 19.095 0 0 0 220.8 33 Q 213.55 33 209.625 37.625 A 15.42 15.42 0 0 0 206.628 43.333 Q 205.961 45.6 205.773 48.311 A 31.704 31.704 0 0 0 205.7 50.5 A 28.026 28.026 0 0 0 206.123 55.524 Q 206.636 58.34 207.775 60.58 A 14.344 14.344 0 0 0 209.625 63.375 A 12.753 12.753 0 0 0 217.183 67.674 A 19.083 19.083 0 0 0 220.8 68 Z" id="5" vector-effect="non-scaling-stroke"/><path d="M 278.7 76 L 270.6 76 A 20.712 20.712 0 0 1 267.622 75.799 Q 266.078 75.574 264.808 75.098 A 9.845 9.845 0 0 1 263.15 74.3 Q 260.35 72.6 259.075 69.925 Q 257.8 67.25 257.8 64.3 L 257.8 33 L 249.4 33 L 250.2 26 L 257.8 26 L 257.8 13.9 L 266.8 13 L 266.8 26 L 279.7 26 L 279.7 33 L 266.8 33 L 266.8 58.8 Q 266.8 62.416 267.125 64.493 A 11.33 11.33 0 0 0 267.35 65.6 Q 267.836 67.457 269.593 68.102 A 4.84 4.84 0 0 0 270.075 68.25 Q 271.738 68.671 274.966 68.77 A 69.888 69.888 0 0 0 277.1 68.8 L 279.4 68.8 L 278.7 76 Z" id="6" vector-effect="non-scaling-stroke"/><path d="M 294.8 66.2 L 297 64.6 L 295.3 75 L 287.3 75 L 287.3 0 L 296.3 0 L 296.3 35.6 L 294.4 34.2 A 18.247 18.247 0 0 1 299.619 28.772 A 22.622 22.622 0 0 1 301.55 27.575 Q 306.2 25 311.5 25 A 21.993 21.993 0 0 1 317.69 25.839 A 18.242 18.242 0 0 1 323.3 28.575 Q 328.25 32.15 330.925 37.975 Q 333.6 43.8 333.6 50.5 Q 333.6 57.65 330.65 63.425 A 24.992 24.992 0 0 1 325.659 70.211 A 23.076 23.076 0 0 1 322.7 72.6 Q 317.7 76 311.5 76 A 21.589 21.589 0 0 1 301.563 73.544 A 24.778 24.778 0 0 1 301.525 73.525 Q 296.7 71.05 294.8 66.2 Z M 310.4 68 A 13.06 13.06 0 0 0 314.586 67.349 A 11.448 11.448 0 0 0 317.85 65.625 A 14.915 14.915 0 0 0 322.133 60.478 A 18.174 18.174 0 0 0 322.7 59.275 A 21.279 21.279 0 0 0 324.313 52.633 A 25.626 25.626 0 0 0 324.4 50.5 Q 324.4 45.5 322.7 41.55 A 15.92 15.92 0 0 0 320.329 37.628 A 13.814 13.814 0 0 0 317.85 35.3 A 11.952 11.952 0 0 0 311.716 33.056 A 15.138 15.138 0 0 0 310.4 33 Q 306.55 33 303.225 34.925 A 13.328 13.328 0 0 0 299.029 38.804 A 17.104 17.104 0 0 0 297.85 40.725 A 16.406 16.406 0 0 0 296.379 44.803 Q 295.954 46.685 295.841 48.875 A 31.583 31.583 0 0 0 295.8 50.5 A 30.403 30.403 0 0 0 296.042 54.456 Q 296.505 57.973 297.85 60.5 Q 299.9 64.35 303.225 66.175 Q 306.55 68 310.4 68 Z" id="7" vector-effect="non-scaling-stroke"/><path d="M 351.9 75 L 342.8 75 L 342.8 0 L 351.9 0 L 351.9 34.5 L 348.7 34.3 A 33.688 33.688 0 0 1 352.281 30.419 A 25.98 25.98 0 0 1 356.125 27.475 Q 359.603 25.309 364.785 25.039 A 29.049 29.049 0 0 1 366.3 25 A 23.359 23.359 0 0 1 371.091 25.466 Q 374.266 26.131 376.741 27.745 A 14.823 14.823 0 0 1 376.9 27.85 A 17.067 17.067 0 0 1 382.849 34.844 A 20.919 20.919 0 0 1 383.275 35.8 A 26.735 26.735 0 0 1 384.964 41.887 A 36.876 36.876 0 0 1 385.4 47.7 L 385.4 75 L 376.4 75 L 376.4 48.8 Q 376.4 41.173 373.763 37.314 A 9.843 9.843 0 0 0 373.425 36.85 A 9.494 9.494 0 0 0 368.074 33.434 Q 366.473 33.027 364.557 33.002 A 19.332 19.332 0 0 0 364.3 33 A 14.663 14.663 0 0 0 359.032 33.928 A 13.6 13.6 0 0 0 356.075 35.5 A 17.372 17.372 0 0 0 350.824 41.396 A 20.659 20.659 0 0 0 350.4 42.2 L 351.9 36.7 L 351.9 75 Z" id="8" vector-effect="non-scaling-stroke"/><path d="M 406.8 75 L 396 75 L 396 64.4 L 406.8 64.4 L 406.8 75 Z" id="9" vector-effect="non-scaling-stroke"/><path d="M 454.2 34.2 L 452.3 35.5 L 452.3 0 L 461.3 0 L 461.3 75 L 453.3 75 L 451.6 64.6 L 453.9 66.2 Q 451.75 71.05 447.15 73.525 Q 442.55 76 437.3 76 Q 431.05 76 426 72.6 A 24.019 24.019 0 0 1 418.355 64.16 A 28.221 28.221 0 0 1 417.975 63.45 A 26.821 26.821 0 0 1 415.088 53.001 A 32.329 32.329 0 0 1 415 50.6 Q 415 43.85 417.725 38 Q 420.45 32.15 425.45 28.575 A 19.144 19.144 0 0 1 434.796 25.126 A 24.411 24.411 0 0 1 437.3 25 Q 442.2 25 446.775 27.125 A 15.877 15.877 0 0 1 452.82 32.102 A 20.533 20.533 0 0 1 454.2 34.2 Z M 438.9 68 A 13.858 13.858 0 0 0 444.349 66.856 A 16.879 16.879 0 0 0 445.625 66.25 A 12.707 12.707 0 0 0 449.634 62.888 A 16.848 16.848 0 0 0 451.125 60.675 A 15.058 15.058 0 0 0 452.602 56.902 Q 453.3 54.14 453.3 50.6 Q 453.3 44.8 451.125 40.875 Q 448.95 36.95 445.625 34.975 A 14.617 14.617 0 0 0 442.281 33.494 A 11.945 11.945 0 0 0 438.9 33 A 15.392 15.392 0 0 0 434.873 33.505 A 12.351 12.351 0 0 0 431 35.3 A 14.431 14.431 0 0 0 426.321 40.785 A 17.471 17.471 0 0 0 425.95 41.575 A 20.492 20.492 0 0 0 424.412 47.219 A 26.201 26.201 0 0 0 424.2 50.6 A 22.43 22.43 0 0 0 424.918 56.358 A 19.674 19.674 0 0 0 425.95 59.3 A 15.642 15.642 0 0 0 429.177 64.076 A 14.753 14.753 0 0 0 431 65.625 A 12.567 12.567 0 0 0 436.916 67.882 A 16.287 16.287 0 0 0 438.9 68 Z" id="10" vector-effect="non-scaling-stroke"/><path d="M 515.1 50.5 L 479.6 50.5 Q 480.045 55.158 481.406 58.409 A 15.017 15.017 0 0 0 482.85 61.1 A 15.07 15.07 0 0 0 486.202 64.663 A 13.429 13.429 0 0 0 489.4 66.45 Q 493.35 68 498 68 A 36.67 36.67 0 0 0 503.156 67.622 A 42.92 42.92 0 0 0 505.1 67.3 Q 508.8 66.6 512.1 65.1 L 513.3 72.2 A 49.469 49.469 0 0 1 510.987 73.141 Q 508.913 73.928 506.35 74.725 Q 502.374 75.961 497.223 75.999 A 44.428 44.428 0 0 1 496.9 76 A 34.961 34.961 0 0 1 490.326 75.414 Q 486.307 74.645 483.072 72.865 A 21.425 21.425 0 0 1 482.35 72.45 Q 476.45 68.9 473.425 63.025 A 27.601 27.601 0 0 1 470.412 50.977 A 32.36 32.36 0 0 1 470.4 50.1 A 28.908 28.908 0 0 1 471.735 41.225 A 26.431 26.431 0 0 1 473.225 37.55 Q 476.05 31.85 481.425 28.425 A 21.468 21.468 0 0 1 489.225 25.442 A 29.037 29.037 0 0 1 494.4 25 A 26.238 26.238 0 0 1 500.507 25.684 A 21.527 21.527 0 0 1 505.275 27.425 Q 510.05 29.85 512.775 34.475 A 19.127 19.127 0 0 1 515.033 40.573 A 26.759 26.759 0 0 1 515.5 45.7 A 33.234 33.234 0 0 1 515.481 46.794 A 41.99 41.99 0 0 1 515.425 47.975 A 19.424 19.424 0 0 1 515.174 50.096 A 21.813 21.813 0 0 1 515.1 50.5 Z M 480.4 44.3 L 506.2 44.3 Q 506.2 40.85 504.9 38.3 Q 503.6 35.75 500.95 34.375 Q 498.767 33.242 495.599 33.043 A 22.269 22.269 0 0 0 494.2 33 A 19.39 19.39 0 0 0 490.601 33.313 Q 487.154 33.965 484.975 35.975 A 14.18 14.18 0 0 0 481.94 40.073 Q 480.991 41.959 480.4 44.3 Z" id="11" vector-effect="non-scaling-stroke"/><path d="M 547.8 75 L 537.7 75 L 519 26 L 529 26 L 542.7 65.1 L 556.3 26 L 566.4 26 L 547.8 75 Z" id="12" vector-effect="non-scaling-stroke"/></g></svg>