<svg width="135" height="41" viewBox="0 0 135 41" fill="none" xmlns="http://www.w3.org/2000/svg">
<path fill-rule="evenodd" clip-rule="evenodd" d="M41.9521 11.2761C41.9521 10.5619 42.5283 9.98291 43.2391 9.98291H56.0784C56.7892 9.98291 57.3653 10.5619 57.3653 11.2761C57.3653 11.9903 56.7892 12.5693 56.0784 12.5693H50.9457V28.8056C50.9457 29.5198 50.3695 30.0988 49.6587 30.0988C48.948 30.0988 48.3718 29.5198 48.3718 28.8056V12.5693H43.2391C42.5283 12.5693 41.9521 11.9903 41.9521 11.2761ZM70.7553 9.98291C71.466 9.98291 72.0422 10.5619 72.0422 11.2761V18.3518C73.1345 17.5179 74.497 17.023 75.9747 17.023C79.568 17.023 82.481 19.9501 82.481 23.5609C82.481 27.1717 79.568 30.0988 75.9747 30.0988C74.497 30.0988 73.1345 29.6038 72.0422 28.7699V28.8056C72.0422 29.5198 71.466 30.0988 70.7553 30.0988C70.0445 30.0988 69.4683 29.5198 69.4683 28.8056V11.2761C69.4683 10.5619 70.0445 9.98291 70.7553 9.98291ZM72.0422 23.5609C72.0422 25.7433 73.8028 27.5124 75.9747 27.5124C78.1465 27.5124 79.9071 25.7433 79.9071 23.5609C79.9071 21.3785 78.1465 19.6094 75.9747 19.6094C73.8028 19.6094 72.0422 21.3785 72.0422 23.5609ZM91.7188 9.98291C92.4296 9.98291 93.0058 10.5619 93.0058 11.2761V20.9202H100.988V11.2761C100.988 10.5619 101.564 9.98291 102.275 9.98291C102.986 9.98291 103.562 10.5619 103.562 11.2761V28.8056C103.562 29.5198 102.986 30.0988 102.275 30.0988C101.564 30.0988 100.988 29.5198 100.988 28.8056V23.5066H93.0058V28.8056C93.0058 29.5198 92.4296 30.0988 91.7188 30.0988C91.0081 30.0988 90.4319 29.5198 90.4319 28.8056V11.2761C90.4319 10.5619 91.0081 9.98291 91.7188 9.98291ZM60.1914 19.6094C58.0195 19.6094 56.2589 21.3785 56.2589 23.5609C56.2589 25.7433 58.0195 27.5124 60.1914 27.5124C62.3632 27.5124 64.1238 25.7433 64.1238 23.5609C64.1238 21.3785 62.3632 19.6094 60.1914 19.6094ZM64.1238 18.3518C63.0315 17.5179 61.669 17.023 60.1914 17.023C56.598 17.023 53.685 19.9501 53.685 23.5609C53.685 27.1717 56.598 30.0988 60.1914 30.0988C61.669 30.0988 63.0315 29.6038 64.1238 28.7699V28.8056C64.1238 29.5198 64.7 30.0988 65.4108 30.0988C66.1215 30.0988 66.6977 29.5198 66.6977 28.8056V18.3162C66.6977 17.602 66.1215 17.023 65.4108 17.023C64.7 17.023 64.1238 17.602 64.1238 18.3162V18.3518ZM112.389 19.6094C110.217 19.6094 108.457 21.3785 108.457 23.5609C108.457 25.7433 110.217 27.5124 112.389 27.5124C114.561 27.5124 116.322 25.7433 116.322 23.5609C116.322 21.3785 114.561 19.6094 112.389 19.6094ZM105.883 23.5609C105.883 19.9501 108.796 17.023 112.389 17.023C115.983 17.023 118.896 19.9501 118.896 23.5609C118.896 27.1717 115.983 30.0988 112.389 30.0988C108.796 30.0988 105.883 27.1717 105.883 23.5609ZM122.503 17.023C123.214 17.023 123.79 17.602 123.79 18.3162V18.3548C124.883 17.5191 126.247 17.023 127.727 17.023C131.32 17.023 134.233 19.9501 134.233 23.5609C134.233 27.1717 131.32 30.0988 127.727 30.0988C126.247 30.0988 124.883 29.6027 123.79 28.7669V36.8671C123.79 37.5813 123.214 38.1603 122.503 38.1603C121.793 38.1603 121.217 37.5813 121.217 36.8671V18.3162C121.217 17.602 121.793 17.023 122.503 17.023ZM127.727 19.6094C125.555 19.6094 123.794 21.3785 123.794 23.5609C123.794 25.7433 125.555 27.5124 127.727 27.5124C129.899 27.5124 131.659 25.7433 131.659 23.5609C131.659 21.3785 129.899 19.6094 127.727 19.6094Z" fill="#FE274F"/>
<path d="M15.2172 40.4939C22.4888 40.4939 28.3835 39.4491 28.3835 38.1603C28.3835 36.8715 22.4888 35.8267 15.2172 35.8267C7.94557 35.8267 2.05078 36.8715 2.05078 38.1603C2.05078 39.4491 7.94557 40.4939 15.2172 40.4939Z" fill="#EE3453"/>
<path d="M29.8915 13.5626C29.4276 12.7507 28.6714 12.1754 27.762 11.9481L25.7022 11.4285L29.474 5.78708L27.1682 4.24683L22.849 10.714L16.5117 9.11811C16.8875 5.21181 14.3637 1.50963 10.4435 0.521458C6.115 -0.568781 1.73084 2.05707 0.6406 6.38092C-0.315099 10.1759 1.59166 14.0219 4.99692 15.641L2.09271 29.4476C1.30402 33.1869 6.04077 35.0565 12.2806 36.6293C18.5252 38.1974 23.5774 38.7912 24.6537 35.1261L30.2023 16.2209C30.4668 15.3209 30.3601 14.3791 29.8915 13.5626ZM11.4038 22.5443L9.48778 31.6559C8.829 31.4796 7.78051 31.0992 7.15884 30.7791L9.01921 21.9458L7.94753 21.6767C7.21451 21.4912 6.75522 20.7582 6.91296 20.0159L7.67844 16.3879L8.71301 11.4656C8.87075 10.714 9.62232 10.2455 10.3646 10.431L11.3853 10.6862L10.2162 16.2348C12.6193 15.7013 14.6977 14.0822 15.7741 11.7904L21.2067 13.159L14.4287 23.3051L11.4038 22.5443ZM25.3821 15.6874L22.7377 24.0289C22.5103 24.7387 21.7727 25.1516 21.049 24.9707L17.2865 24.0242L24.0692 13.8781L24.4264 13.9662C25.1779 14.1564 25.6187 14.9451 25.3821 15.6874Z" fill="#EE3453"/>
</svg>
